<svg width="122" height="93" viewBox="0 0 122 93" fill="none" xmlns="http://www.w3.org/2000/svg">
<path opacity="0.5" d="M108.6 48C108.6 72.8528 88.9901 93 64.8 93C40.6099 93 21 72.8528 21 48C21 23.1472 40.6099 3 64.8 3C88.9901 3 108.6 23.1472 108.6 48Z" fill="url(#paint0_linear)" fill-opacity="0.3"/>
<path d="M78.0834 51.0927H46.7095V72.3132H78.0834V51.0927Z" fill="#DBDBDB"/>
<path d="M81.4435 72.9457H80.0661V49.6817C80.0661 49.3689 79.8157 49.1187 79.5027 49.1187H45.2905C44.9774 49.1187 44.727 49.3689 44.727 49.6817V72.9457H43.3496V49.6817C43.3496 48.6113 44.2192 47.7424 45.2905 47.7424H79.4957C80.567 47.7424 81.4366 48.6113 81.4366 49.6817V72.9457H81.4435Z" fill="#262626"/>
<path d="M83.3636 76.998H41.4297C40.0314 76.998 38.3479 75.7747 38.1601 75.6287L37.8818 75.4202V72.1395H86.9114V75.4202L86.6331 75.6287C86.4523 75.7677 84.7618 76.998 83.3636 76.998ZM39.2592 74.7182C39.8714 75.1283 40.8175 75.6148 41.4297 75.6148H83.3705C83.9827 75.6148 84.9218 75.1213 85.541 74.7182V73.5157H39.2592V74.7182Z" fill="#262626"/>
<path d="M87.1689 63.6665L86.1115 63.4649L86.3689 62.1165L87.4263 62.3181L87.1689 63.6665ZM84.762 63.2078L83.4124 62.9506L83.6698 61.6022L85.0193 61.8593L84.762 63.2078ZM82.0559 62.6934L80.7063 62.4362L80.9637 61.0878L82.3133 61.345L82.0559 62.6934ZM79.3567 62.1791L78.0072 61.9219L78.2646 60.5734L79.6141 60.8306L79.3567 62.1791ZM76.6507 61.6647L75.3011 61.4075L75.5585 60.0591L76.908 60.3163L76.6507 61.6647ZM73.9446 61.1504L72.595 60.8932L72.8524 59.5447L74.202 59.8019L73.9446 61.1504ZM71.2385 60.636L69.8889 60.3788L70.1463 59.0304L71.4959 59.2876L71.2385 60.636ZM68.5324 60.1217L67.1828 59.8645L67.4402 58.516L68.7898 58.7732L68.5324 60.1217ZM65.8263 59.6073L64.4767 59.3501L64.7341 58.0017L66.0837 58.2589L65.8263 59.6073ZM63.1202 59.0929L61.7707 58.8358L62.028 57.4873L63.3776 57.7445L63.1202 59.0929ZM60.4141 58.5786L59.0646 58.3214L59.322 56.973L60.6715 57.2301L60.4141 58.5786ZM57.708 58.0642L56.3585 57.8071L56.6159 56.4586L57.9654 56.7158L57.708 58.0642ZM55.002 57.5499L53.6524 57.2927L53.9098 55.9443L55.2593 56.2014L55.002 57.5499ZM52.3028 57.0355L50.9533 56.7784L51.2106 55.4299L52.5602 55.6871L52.3028 57.0355ZM49.5967 56.5212L48.2472 56.264L48.4976 54.9156L49.8472 55.1727L49.5967 56.5212ZM46.8906 56.0068L45.5411 55.7496L45.7985 54.4012L47.148 54.6584L46.8906 56.0068ZM44.1846 55.4925L42.835 55.2353L43.0924 53.8868L44.4419 54.144L44.1846 55.4925ZM41.4785 54.9781L40.1289 54.7209L40.3863 53.3725L41.7359 53.6297L41.4785 54.9781Z" fill="#DBDBDB"/>
<path d="M33.325 59.1972C28.7824 59.1972 25.0815 55.5064 25.0815 50.9606C25.0815 46.4218 28.7824 42.724 33.325 42.724C37.8676 42.724 41.5685 46.4218 41.5685 50.9606C41.5615 55.4994 37.8676 59.1972 33.325 59.1972ZM33.325 44.1002C29.5407 44.1002 26.4589 47.1794 26.4589 50.9606C26.4589 54.7418 29.5407 57.821 33.325 57.821C37.1094 57.821 40.1911 54.7418 40.1911 50.9606C40.1841 47.1794 37.1094 44.1002 33.325 44.1002Z" fill="#262626"/>
<path d="M33.3251 53.1153C31.732 53.1153 30.4312 51.8225 30.4312 50.2238C30.4312 48.6252 31.7251 47.3323 33.3251 47.3323C34.9181 47.3323 36.219 48.6252 36.219 50.2238C36.219 51.8225 34.9181 53.1153 33.3251 53.1153ZM33.3251 48.7155C32.4903 48.7155 31.8085 49.3967 31.8085 50.2308C31.8085 51.0649 32.4903 51.746 33.3251 51.746C34.1599 51.746 34.8416 51.0649 34.8416 50.2308C34.8346 49.3898 34.1599 48.7155 33.3251 48.7155Z" fill="#262626"/>
<path d="M37.8676 57.4109H36.4902V54.8739C36.4902 54.0398 35.8084 53.3586 34.9736 53.3586H31.6693C30.8345 53.3586 30.1528 54.0398 30.1528 54.8739V57.4109H28.7754V54.8739C28.7754 53.2821 30.0693 51.9824 31.6693 51.9824H34.9736C36.5667 51.9824 37.8676 53.2752 37.8676 54.8739V57.4109Z" fill="#262626"/>
<path d="M39.085 45.0734L38.6606 43.7666L39.9685 43.3426L40.3928 44.6494L39.085 45.0734ZM41.7076 44.2323L41.2833 42.9256L42.5911 42.5016L43.0154 43.8083L41.7076 44.2323ZM44.3302 43.3913L43.9059 42.0845L45.2137 41.6606L45.638 42.9673L44.3302 43.3913ZM46.9528 42.5502L46.5285 41.2435L47.8363 40.8195L48.2606 42.1263L46.9528 42.5502ZM49.5754 41.7092L49.1511 40.4025L50.4589 39.9785L50.8833 41.2852L49.5754 41.7092ZM52.198 40.8612L51.7737 39.5545L53.0815 39.1305L53.5059 40.4372L52.198 40.8612ZM54.8206 40.0202L54.3963 38.7134L55.7041 38.2895L56.1285 39.5962L54.8206 40.0202ZM57.4433 39.1791L57.0189 37.8724L58.3267 37.4484L58.7511 38.7552L57.4433 39.1791ZM60.0659 38.3381L59.6415 37.0314L60.9493 36.6074L61.3737 37.9141L60.0659 38.3381ZM62.6885 37.4971L62.2641 36.1903L63.5719 35.7663L63.9963 37.0731L62.6885 37.4971ZM65.3041 36.656L64.8798 35.3493L66.1876 34.9253L66.612 36.232L65.3041 36.656ZM67.9267 35.815L67.5024 34.5083L68.8102 34.0843L69.2346 35.391L67.9267 35.815ZM70.5493 34.974L70.125 33.6672L71.4328 33.2432L71.8572 34.55L70.5493 34.974ZM73.172 34.1329L72.7476 32.8262L74.0554 32.4022L74.4798 33.7089L73.172 34.1329ZM75.7946 33.2919L75.3702 31.9851L76.532 31.6168L76.9563 32.9235L75.7946 33.2919Z" fill="#DBDBDB"/>
<path d="M90.1249 58.4813L89.5128 57.251L90.7441 56.6393L91.3562 57.8696L90.1249 58.4813ZM88.9006 56.0138L88.2884 54.7835L89.5197 54.1718L90.1319 55.4021L88.9006 56.0138ZM87.6763 53.5463L87.0641 52.316L88.2954 51.7043L88.9075 52.9346L87.6763 53.5463ZM86.4589 51.0857L85.8467 49.8554L87.078 49.2438L87.6902 50.474L86.4589 51.0857ZM85.2345 48.6182L84.6223 47.3879L85.8536 46.7762L86.4658 48.0065L85.2345 48.6182ZM84.0102 46.1507L83.398 44.9204L84.6293 44.3087L85.2415 45.539L84.0102 46.1507ZM82.7858 43.6901L82.1736 42.4598L83.4049 41.8482L84.0171 43.0785L82.7858 43.6901ZM81.5684 41.2226L80.9562 39.9923L82.1875 39.3807L82.7997 40.611L81.5684 41.2226ZM80.3441 38.7551L79.7319 37.5248L80.9632 36.9132L81.5754 38.1435L80.3441 38.7551ZM79.1197 36.2876L78.5075 35.0573L79.7389 34.4457L80.351 35.6759L79.1197 36.2876ZM77.8954 33.827L77.2832 32.5968L78.5145 31.9851L79.1267 33.2154L77.8954 33.827Z" fill="#DBDBDB"/>
<path d="M85.3254 33.0069C85.3254 37.4067 81.7568 40.9794 77.3463 40.9794C72.9428 40.9794 69.3672 37.4137 69.3672 33.0069C69.3672 28.6071 72.9359 25.0344 77.3463 25.0344C81.7568 25.0344 85.3254 28.6071 85.3254 33.0069Z" fill="#DBDBDB"/>
<path d="M77.3531 35.1338C75.781 35.1338 74.501 33.8549 74.501 32.284C74.501 30.7131 75.781 29.4342 77.3531 29.4342C78.9253 29.4342 80.2053 30.7131 80.2053 32.284C80.2053 33.8549 78.9253 35.1338 77.3531 35.1338ZM77.3531 30.8104C76.5392 30.8104 75.8784 31.4708 75.8784 32.284C75.8784 33.0972 76.5392 33.7576 77.3531 33.7576C78.1671 33.7576 78.8279 33.0972 78.8279 32.284C78.8279 31.4708 78.1671 30.8104 77.3531 30.8104Z" fill="#262626"/>
<path d="M77.353 39.2208C75.767 39.2208 74.2504 38.6161 73.0887 37.5249L72.873 37.3233V36.8507C72.873 35.2798 74.153 34.0009 75.7252 34.0009H78.9739C80.5461 34.0009 81.8261 35.2798 81.8261 36.8507V37.3233L81.6104 37.5249C80.4487 38.6231 78.9391 39.2208 77.353 39.2208ZM74.2574 36.7255C75.127 37.4484 76.2191 37.8516 77.353 37.8516C78.487 37.8516 79.5791 37.4554 80.4487 36.7255C80.3861 35.9749 79.7461 35.3771 78.9809 35.3771H75.7322C74.953 35.3771 74.32 35.9679 74.2574 36.7255Z" fill="#262626"/>
<path d="M92.5739 71.2011C88.7965 71.2011 85.7217 68.1289 85.7217 64.3546C85.7217 60.5804 88.7965 57.5082 92.5739 57.5082C96.3513 57.5082 99.426 60.5804 99.426 64.3546C99.426 68.1289 96.3513 71.2011 92.5739 71.2011ZM92.5739 58.8844C89.5547 58.8844 87.0991 61.338 87.0991 64.3546C87.0991 67.3713 89.5547 69.8249 92.5739 69.8249C95.593 69.8249 98.0486 67.3713 98.0486 64.3546C98.0486 61.338 95.593 58.8844 92.5739 58.8844Z" fill="#262626"/>
<path d="M92.5739 66.4885C91.0017 66.4885 89.7217 65.2096 89.7217 63.6387C89.7217 62.0679 91.0017 60.7889 92.5739 60.7889C94.146 60.7889 95.426 62.0679 95.426 63.6387C95.426 65.2096 94.146 66.4885 92.5739 66.4885ZM92.5739 62.1582C91.7599 62.1582 91.0991 62.8186 91.0991 63.6318C91.0991 64.445 91.7599 65.1053 92.5739 65.1053C93.3878 65.1053 94.0486 64.445 94.0486 63.6318C94.0556 62.8255 93.3878 62.1582 92.5739 62.1582Z" fill="#262626"/>
<path d="M97.0536 68.7197H95.6763V68.5459C95.6763 67.7327 95.0154 67.0724 94.2015 67.0724H90.9528C90.1389 67.0724 89.478 67.7327 89.478 68.5459V68.7197H88.1006V68.5459C88.1006 66.975 89.3806 65.6961 90.9528 65.6961H94.2015C95.7736 65.6961 97.0536 66.975 97.0536 68.5459V68.7197Z" fill="#262626"/>
<path d="M43.0645 72.9457H44.4418V49.6817C44.4418 49.3689 44.6923 49.1187 45.0053 49.1187H79.2105C79.5236 49.1187 79.774 49.3689 79.774 49.6817V72.9457H81.1514V49.6817C81.1514 48.6113 80.2818 47.7424 79.2105 47.7424H45.0053C43.934 47.7424 43.0645 48.6113 43.0645 49.6817V72.9457Z" fill="#262626"/>
<path d="M100.122 35.0365C100.122 30.8521 103.524 27.4532 107.712 27.4532C111.899 27.4532 115.301 30.8521 115.301 35.0365C115.301 39.2139 111.899 42.6197 107.712 42.6197C103.524 42.6197 100.122 39.2208 100.122 35.0365ZM101.388 35.0365C101.388 38.5188 104.226 41.3547 107.712 41.3547C111.197 41.3547 114.035 38.5188 114.035 35.0365C114.035 31.5542 111.197 28.7183 107.712 28.7183C104.226 28.7252 101.388 31.5542 101.388 35.0365Z" fill="#262626"/>
<path d="M105.047 34.3623C105.047 32.8957 106.244 31.7001 107.712 31.7001C109.18 31.7001 110.376 32.8957 110.376 34.3623C110.376 35.8289 109.18 37.0244 107.712 37.0244C106.244 37.0244 105.047 35.8289 105.047 34.3623ZM106.313 34.3623C106.313 35.1338 106.94 35.7524 107.705 35.7524C108.477 35.7524 109.096 35.1268 109.096 34.3623C109.096 33.5977 108.47 32.9721 107.705 32.9721C106.94 32.9721 106.313 33.5977 106.313 34.3623Z" fill="#262626"/>
<path d="M103.524 40.9793H104.79V38.6439C104.79 37.8723 105.416 37.2537 106.181 37.2537H109.221C109.993 37.2537 110.612 37.8793 110.612 38.6439V40.9793H111.878V38.6439C111.878 37.1773 110.682 35.9818 109.214 35.9818H106.174C104.706 35.9818 103.51 37.1773 103.51 38.6439V40.9793H103.524Z" fill="#262626"/>
<path d="M28.0659 19.6198C28.0659 14.3164 32.379 10 37.6937 10C43.0016 10 47.3216 14.3164 47.3216 19.6198C47.3216 24.9232 43.0016 29.2396 37.6937 29.2396C32.379 29.2396 28.0659 24.9232 28.0659 19.6198ZM29.6729 19.6198C29.6729 24.0405 33.2694 27.634 37.6937 27.634C42.1181 27.634 45.7146 24.0405 45.7146 19.6198C45.7146 15.1991 42.1181 11.6056 37.6937 11.6056C33.2694 11.6056 29.6729 15.1991 29.6729 19.6198Z" fill="#262626"/>
<path d="M34.313 18.7648C34.313 16.902 35.8295 15.3937 37.6939 15.3937C39.5582 15.3937 41.0678 16.909 41.0678 18.7648C41.0678 20.6207 39.5512 22.1359 37.6939 22.1359C35.8295 22.1359 34.313 20.6207 34.313 18.7648ZM35.9199 18.7648C35.9199 19.7379 36.713 20.5303 37.6869 20.5303C38.6608 20.5303 39.4539 19.7379 39.4539 18.7648C39.4539 17.7917 38.6608 16.9994 37.6869 16.9994C36.713 16.9994 35.9199 17.7917 35.9199 18.7648Z" fill="#262626"/>
<path d="M32.3859 27.1544H33.9928V24.1864C33.9928 23.2133 34.7859 22.4209 35.7598 22.4209H39.6206C40.5946 22.4209 41.3876 23.2133 41.3876 24.1864V27.1544H42.9945V24.1864C42.9945 22.3236 41.478 20.8153 39.6137 20.8153H35.7528C33.8885 20.8153 32.3789 22.3306 32.3789 24.1864V27.1544H32.3859Z" fill="#262626"/>
<path d="M14 72.4731C14 68.5946 17.1583 65.439 21.04 65.439C24.9217 65.439 28.08 68.5946 28.08 72.4731C28.08 76.3516 24.9217 79.5072 21.04 79.5072C17.1583 79.5072 14 76.3516 14 72.4731ZM15.4122 72.4731C15.4122 75.5731 17.9374 78.0962 21.04 78.0962C24.1426 78.0962 26.6678 75.5731 26.6678 72.4731C26.6678 69.3731 24.1426 66.85 21.04 66.85C17.9374 66.85 15.4122 69.3731 15.4122 72.4731Z" fill="#262626"/>
<path d="M18.1045 71.7293C18.1045 70.1168 19.4193 68.7961 21.0401 68.7961C22.6541 68.7961 23.9758 70.1098 23.9758 71.7293C23.9758 73.3489 22.661 74.6556 21.0401 74.6556C19.4193 74.6625 18.1045 73.3489 18.1045 71.7293ZM19.5236 71.7293C19.5236 72.5634 20.2054 73.2446 21.0401 73.2446C21.8749 73.2446 22.5567 72.5634 22.5567 71.7293C22.5567 70.8953 21.8749 70.2141 21.0401 70.2141C20.1984 70.2141 19.5236 70.8953 19.5236 71.7293Z" fill="#262626"/>
<path d="M16.4348 76.9563H17.847V76.7756C17.847 75.9415 18.5287 75.2604 19.3635 75.2604H22.7026C23.5374 75.2604 24.2192 75.9415 24.2192 76.7756V76.9563H25.6313V76.7756C25.6313 75.1631 24.3166 73.8494 22.6957 73.8494H19.3566C17.7426 73.8494 16.4209 75.1631 16.4209 76.7756V76.9563H16.4348Z" fill="#262626"/>
<path d="M22.6473 63.319L21.1655 62.8255L21.6594 61.345L23.1412 61.8385L22.6473 63.319ZM24.129 58.8845L22.6473 58.391L23.1412 56.9104L24.6229 57.4039L24.129 58.8845ZM30.049 41.1393L28.5673 40.6458L29.0612 39.1653L30.5429 39.6588L30.049 41.1393ZM31.5238 36.6978L30.0421 36.2042L30.536 34.7237L32.0177 35.2172L31.5238 36.6978ZM33.0055 32.2632L31.5238 31.7697L32.0177 30.2892L33.4994 30.7827L33.0055 32.2632Z" fill="#DBDBDB"/>
<path d="M96.574 29.747L95.2592 29.5037L95.5444 27.9746L96.8592 28.2179L96.574 29.747ZM92.1914 28.9268L90.661 28.6418L90.9462 27.1127L92.4766 27.3977L92.1914 28.9268ZM87.5931 28.0719L86.0627 27.7869L86.3479 26.2577L87.8783 26.5427L87.5931 28.0719ZM69.1931 24.6313L67.6627 24.3463L67.9479 22.8171L69.4784 23.1021L69.1931 24.6313ZM64.5879 23.7763L63.0575 23.4914L63.3427 21.9622L64.8731 22.2472L64.5879 23.7763ZM59.9897 22.9145L58.4592 22.6295L58.7444 21.1003L60.2749 21.3853L59.9897 22.9145ZM55.3914 22.0595L53.861 21.7745L54.1462 20.2454L55.6766 20.5304L55.3914 22.0595ZM50.7931 21.1976L49.2627 20.9126L49.5479 19.3835L51.0783 19.6685L50.7931 21.1976Z" fill="#DBDBDB"/>
<path d="M31.0714 70.5338L30.5566 69.0603L32.0314 68.5459L32.5462 70.0195L31.0714 70.5338ZM35.4888 68.9908L34.974 67.5172L36.4488 67.0029L36.9636 68.4764L35.4888 68.9908ZM39.9062 67.4477L39.3914 65.9742L40.8662 65.4598L41.381 66.9334L39.9062 67.4477ZM84.0732 51.9963L83.5584 50.5227L85.0332 50.0084L85.5479 51.4819L84.0732 51.9963ZM88.4906 50.4532L87.9758 48.9797L89.4506 48.4653L89.9653 49.9388L88.4906 50.4532ZM92.9079 48.9101L92.3932 47.4366L93.8679 46.9222L94.3827 48.3958L92.9079 48.9101ZM97.3253 47.3601L96.8106 45.8866L98.2853 45.3722L98.8001 46.8458L97.3253 47.3601ZM101.743 45.8171L101.228 44.3435L102.703 43.8292L103.218 45.3027L101.743 45.8171Z" fill="#DBDBDB"/>
<path d="M61.7427 65.8699C68.6813 65.8699 74.3062 60.2498 74.3062 53.3169C74.3062 46.3841 68.6813 40.7639 61.7427 40.7639C54.8041 40.7639 49.1792 46.3841 49.1792 53.3169C49.1792 60.2498 54.8041 65.8699 61.7427 65.8699Z" fill="#FF305C"/>
<path d="M63.1896 58.238V59.7602H60.5948V58.2867C59.5165 58.0295 58.633 57.4109 57.9443 56.4378L59.6626 54.5889C60.1635 55.2353 60.9983 55.7914 61.7565 55.7914C62.1878 55.7914 62.4035 55.6454 62.4035 55.3326C62.4035 55.0615 62.2296 54.9295 61.7565 54.714C60.8243 54.2831 60.1496 53.9147 59.7322 53.6227C58.8556 53.0041 58.4243 52.1909 58.4243 51.183C58.4243 49.7373 59.2591 48.7294 60.6017 48.3054V46.8736H63.1965V48.222C63.8852 48.3819 64.5878 48.7503 65.3322 49.2994L64.0104 51.4194C63.2104 50.9189 62.5357 50.6756 62 50.6756C61.5548 50.6756 61.3252 50.8216 61.3252 51.1205C61.3252 51.3221 61.513 51.4819 61.6869 51.5792C61.8609 51.6765 62.3061 51.8642 62.487 51.9546C62.7304 52.0727 63.7183 52.5106 64.2191 52.8443C65.0957 53.4212 65.5409 54.1927 65.5409 55.1519C65.527 56.688 64.6087 57.7932 63.1896 58.238Z" fill="white"/>
<defs>
<linearGradient id="paint0_linear" x1="21" y1="93" x2="83.021" y2="-12.0952" gradientUnits="userSpaceOnUse">
<stop stop-color="#00DFEC"/>
<stop offset="1" stop-color="#7427F1"/>
</linearGradient>
</defs>
</svg>
