<svg width="88" height="90" viewBox="0 0 88 90" fill="none" xmlns="http://www.w3.org/2000/svg">
<ellipse opacity="0.5" cx="43.8" cy="45.0009" rx="43.8" ry="45" fill="url(#paint0_linear)" fill-opacity="0.3"/>
<path d="M74.42 52.8483H72.7998V51.2253H74.42V52.8483ZM71.1796 52.8483H69.5593V51.2253H71.1796V52.8483ZM67.9391 52.8483H66.3189V51.2253H67.9391V52.8483ZM64.6987 52.8483H63.0785V51.2253H64.6987V52.8483ZM61.4583 52.8483H59.838V51.2253H61.4583V52.8483ZM58.2103 52.8483H56.59V51.2253H58.2103V52.8483ZM54.9698 52.8483H53.3496V51.2253H54.9698V52.8483ZM76.0932 52.8256L75.9721 51.2025C76.4415 51.1646 76.9033 51.0736 77.35 50.9219L77.8724 52.4539C77.3046 52.6587 76.7065 52.7801 76.0932 52.8256ZM79.5154 51.65L78.6144 50.3C79.0081 50.0421 79.3639 49.7236 79.6743 49.3747L80.8857 50.4517C80.4844 50.9067 80.0226 51.3163 79.5154 51.65ZM81.923 48.95L80.4769 48.2143C80.6889 47.7972 80.8479 47.3497 80.9463 46.8871L82.5286 47.2359C82.4075 47.8275 82.1955 48.4039 81.923 48.95ZM81.075 45.4764C81.0523 45.0062 80.9766 44.5359 80.8403 44.0885L82.3924 43.6106C82.5741 44.1946 82.6725 44.8014 82.7028 45.4081L81.075 45.4764ZM80.2497 42.7991C79.9999 42.3972 79.7046 42.0331 79.3564 41.707L80.4693 40.5314C80.9084 40.9485 81.3021 41.4264 81.6201 41.9497L80.2497 42.7991ZM78.2207 40.8727C77.8043 40.6452 77.3652 40.4707 76.9109 40.357L77.3046 38.7794C77.8951 38.9311 78.463 39.1511 79.0005 39.4469L78.2207 40.8727ZM75.5102 40.1901H73.89V38.5671H75.5102V40.1901ZM72.2698 40.1901H70.6496V38.5671H72.2698V40.1901ZM69.0294 40.1901H68.8704V38.5671H69.0294V40.1901Z" fill="#262626"/>
<path d="M27.2139 65.2032H25.5936V63.5801H27.2139V65.2032ZM23.7917 65.006C23.1936 64.8619 22.6258 64.6419 22.0882 64.3385L22.868 62.9203C23.2769 63.1478 23.716 63.3147 24.1703 63.4284L23.7917 65.006ZM20.6194 63.254C20.1803 62.8293 19.7942 62.3439 19.4837 61.813L20.8768 60.9863C21.1191 61.3882 21.4068 61.7599 21.7475 62.086L20.6194 63.254ZM18.7645 60.1293C18.6055 59.5377 18.5146 58.9309 18.5146 58.3166L20.1349 58.309C20.1349 58.7792 20.203 59.2495 20.3241 59.6969L18.7645 60.1293ZM20.309 56.9135L18.7418 56.4964C18.9008 55.9048 19.1355 55.336 19.4459 54.8051L20.8465 55.6242C20.6118 56.0261 20.4301 56.466 20.309 56.9135ZM21.7097 54.5169L20.574 53.3641C21.0131 52.9317 21.5052 52.5601 22.0352 52.2643L22.8302 53.675C22.4213 53.895 22.0428 54.1832 21.7097 54.5169ZM24.1248 53.1517L23.7311 51.5742C24.2763 51.4376 24.8517 51.3694 25.4195 51.3694H25.5331V52.9924H25.4195C24.9804 52.9924 24.5488 53.0455 24.1248 53.1517ZM35.2544 52.9924H33.6341V51.3694H35.2544V52.9924ZM32.0139 52.9924H30.3937V51.3694H32.0139V52.9924ZM28.7735 52.9924H27.1533V51.3694H28.7735V52.9924Z" fill="#262626"/>
<path d="M61.6096 75.8439H30.023C29.2507 75.8439 28.6299 75.2144 28.6299 74.4484V59.2419C28.6299 58.4683 29.2583 57.8464 30.023 57.8464H61.6172C62.3894 57.8464 63.0103 58.4759 63.0103 59.2419V74.4484C63.0027 75.2144 62.3819 75.8439 61.6096 75.8439ZM30.2425 74.2209H61.3825V59.4694H30.2425V74.2209Z" fill="#262626"/>
<path d="M59.7472 60.8118H57.2412V62.4349H59.7472V60.8118Z" fill="#262626"/>
<path d="M56.1208 60.8118H53.6147V62.4349H56.1208V60.8118Z" fill="#262626"/>
<path d="M52.5016 60.8118H49.9956V62.4349H52.5016V60.8118Z" fill="#262626"/>
<path d="M48.8752 60.8118H46.3691V62.4349H48.8752V60.8118Z" fill="#262626"/>
<path d="M45.256 60.8118H42.75V62.4349H45.256V60.8118Z" fill="#262626"/>
<path d="M41.6296 60.8118H39.1235V62.4349H41.6296V60.8118Z" fill="#262626"/>
<path d="M38.0104 60.8118H35.5044V62.4349H38.0104V60.8118Z" fill="#262626"/>
<path d="M34.384 60.8118H31.8779V62.4349H34.384V60.8118Z" fill="#262626"/>
<path d="M59.7472 64.1717H57.2412V65.7947H59.7472V64.1717Z" fill="#262626"/>
<path d="M56.1208 64.1717H53.6147V65.7947H56.1208V64.1717Z" fill="#262626"/>
<path d="M52.5016 64.1717H49.9956V65.7947H52.5016V64.1717Z" fill="#262626"/>
<path d="M48.8752 64.1717H46.3691V65.7947H48.8752V64.1717Z" fill="#262626"/>
<path d="M45.256 64.1717H42.75V65.7947H45.256V64.1717Z" fill="#262626"/>
<path d="M41.6296 64.1717H39.1235V65.7947H41.6296V64.1717Z" fill="#262626"/>
<path d="M38.0104 64.1717H35.5044V65.7947H38.0104V64.1717Z" fill="#262626"/>
<path d="M34.384 64.1717H31.8779V65.7947H34.384V64.1717Z" fill="#262626"/>
<path d="M59.7472 67.5315H57.2412V69.1545H59.7472V67.5315Z" fill="#262626"/>
<path d="M56.1208 67.5315H53.6147V69.1545H56.1208V67.5315Z" fill="#262626"/>
<path d="M52.5016 67.5315H49.9956V69.1545H52.5016V67.5315Z" fill="#262626"/>
<path d="M48.8752 67.5315H46.3691V69.1545H48.8752V67.5315Z" fill="#262626"/>
<path d="M45.256 67.5315H42.75V69.1545H45.256V67.5315Z" fill="#262626"/>
<path d="M41.6296 67.5315H39.1235V69.1545H41.6296V67.5315Z" fill="#262626"/>
<path d="M38.0104 67.5315H35.5044V69.1545H38.0104V67.5315Z" fill="#262626"/>
<path d="M34.384 67.5315H31.8779V69.1545H34.384V67.5315Z" fill="#262626"/>
<path d="M59.7472 70.8838H57.2412V72.5068H59.7472V70.8838Z" fill="#262626"/>
<path d="M56.1208 70.8838H53.6147V72.5068H56.1208V70.8838Z" fill="#262626"/>
<path d="M52.5017 70.8838H39.0933V72.5068H52.5017V70.8838Z" fill="#262626"/>
<path d="M38.0104 70.8838H35.5044V72.5068H38.0104V70.8838Z" fill="#262626"/>
<path d="M34.384 70.8838H31.8779V72.5068H34.384V70.8838Z" fill="#262626"/>
<path d="M69.8396 43.5728H18.0078V13.3341C18.0078 12.1282 18.9845 11.1423 20.1959 11.1423H27.184V12.7653H20.1959C19.8854 12.7653 19.628 13.0156 19.628 13.3341V41.9497H68.2194V13.3341C68.2194 13.0232 67.962 12.7653 67.6516 12.7653H61.201V11.1499H67.6516C68.8554 11.1499 69.8396 12.1282 69.8396 13.3417V43.5728Z" fill="#262626"/>
<path d="M65.887 15.1467H21.9595V39.5454H65.887V15.1467Z" fill="#DBDBDB"/>
<path d="M67.7346 49.5036H20.453C19.2189 49.5036 18 48.2522 18 46.9705V42.7233H19.6202V46.9705C19.6202 47.3497 20.1048 47.8806 20.453 47.8806H67.7422C68.0299 47.8806 68.2267 47.4407 68.2267 47.0387V42.7233H69.8469V47.0387C69.8469 48.2522 69.0595 49.5036 67.7346 49.5036Z" fill="#262626"/>
<path d="M36.3599 56.0186L35.7163 54.532C36.2539 54.2969 36.693 54.0922 36.9353 53.9632L37.011 53.9253C37.1094 53.8722 37.2381 53.8039 37.2608 53.7736C37.276 53.7509 37.3365 53.6447 37.4425 53.1289C37.5637 52.5146 37.5485 51.4149 37.5334 50.4365C37.5258 49.7615 37.5182 49.1244 37.5561 48.6694L39.1687 48.8059C39.1385 49.1775 39.146 49.7843 39.1536 50.4138C39.1687 51.5211 39.1839 52.6587 39.0325 53.4399C38.7978 54.6306 38.5403 54.934 37.7908 55.3436L37.7227 55.3815C37.329 55.5938 36.7006 55.8669 36.3599 56.0186Z" fill="#262626"/>
<path d="M51.4795 56.0261C51.1313 55.8745 50.4953 55.5938 50.1092 55.3815L50.0637 55.3587C49.2688 54.9188 49.0643 54.5927 48.8372 53.4399C48.6858 52.6587 48.7009 51.5287 48.7085 50.4441C48.7161 49.8222 48.7236 49.2382 48.6934 48.859L50.306 48.73C50.3439 49.1775 50.3363 49.807 50.3287 50.4668C50.3136 51.4301 50.2984 52.5146 50.4196 53.1289C50.518 53.6295 50.571 53.766 50.5937 53.8039C50.6164 53.8267 50.7451 53.8949 50.8436 53.948L50.889 53.9708C51.1237 54.0997 51.578 54.3121 52.1155 54.5472L51.4795 56.0261Z" fill="#262626"/>
<path d="M53.2133 54.3728H34.6338V55.9958H53.2133V54.3728Z" fill="#262626"/>
<path d="M44.2565 39.3331C44.037 39.3331 43.825 39.2421 43.6736 39.0828L25.3742 20.1372C25.1471 19.9021 25.0865 19.5532 25.2076 19.2574C25.3363 18.9541 25.6316 18.7645 25.9572 18.7645H62.5635C62.889 18.7645 63.1843 18.9617 63.313 19.2574C63.4417 19.5608 63.3736 19.9021 63.1464 20.1372L44.8395 39.0828C44.6881 39.2421 44.4761 39.3331 44.2565 39.3331ZM27.8651 20.3875L44.2565 37.3536L60.648 20.3875H27.8651Z" fill="#FF305C"/>
<path d="M44.2566 39.3331C43.9311 39.3331 43.6358 39.1359 43.5147 38.8401L35.4438 19.8945L36.9354 19.2574L44.2566 36.4587L50.6542 21.4417L52.1457 22.0788L45.0062 38.8477C44.8775 39.1359 44.5822 39.3331 44.2566 39.3331Z" fill="#FF305C"/>
<path d="M62.5637 20.4406H25.9574C25.6546 20.4406 25.382 20.2738 25.2382 20.0083C25.0943 19.7429 25.117 19.4243 25.2836 19.174L30.3184 11.7642C30.4698 11.5442 30.7196 11.4077 30.9846 11.4077H57.5214C57.7863 11.4077 58.0438 11.5442 58.1876 11.7642L63.2224 19.174C63.389 19.4243 63.4117 19.7429 63.2678 20.0083C63.1391 20.2738 62.8666 20.4406 62.5637 20.4406ZM27.4868 18.8176H61.0343L57.1049 13.0308H31.4238L27.4868 18.8176Z" fill="#FF305C"/>
<path d="M36.7384 20.2207L35.6406 19.0299L43.7114 11.5518H44.8092L50.8283 17.1339L49.7305 18.3246L44.2565 13.2507L36.7384 20.2207Z" fill="#FF305C"/>
<path d="M33.0675 13.7718L31.7354 14.6958L35.4637 20.0898L36.7958 19.1658L33.0675 13.7718Z" fill="#FF305C"/>
<path d="M62.5635 20.4406H52.3955C52.0927 20.4406 51.8201 20.2738 51.6763 20.0083C51.54 19.7429 51.5551 19.4167 51.7293 19.1665L56.8473 11.7566C56.9988 11.5366 57.2486 11.4077 57.5136 11.4077C57.7786 11.4077 58.0436 11.5442 58.195 11.7642L63.2298 19.174C63.3963 19.4243 63.4191 19.7429 63.2752 20.0083C63.1389 20.2738 62.8664 20.4406 62.5635 20.4406ZM53.94 18.8176H61.0266L57.5136 13.6451L53.94 18.8176Z" fill="#FF305C"/>
<path d="M62.4981 0.00215285L57.605 4.90381L58.7506 6.05146L63.6438 1.14981L62.4981 0.00215285Z" fill="#FF305C"/>
<path d="M58.7487 -8.11351e-06L57.603 1.14764L62.5015 6.05466L63.6471 4.90701L58.7487 -8.11351e-06Z" fill="#FF305C"/>
<path d="M54.2258 5.70007L51.1743 8.7569L52.32 9.90455L55.3715 6.84772L54.2258 5.70007Z" fill="#FF305C"/>
<path d="M52.3146 5.70568L51.1689 6.85333L54.2205 9.91016L55.3661 8.76251L52.3146 5.70568Z" fill="#FF305C"/>
<defs>
<linearGradient id="paint0_linear" x1="-2.61068e-06" y1="90.0009" x2="62.021" y2="-15.0943" gradientUnits="userSpaceOnUse">
<stop stop-color="#00DFEC"/>
<stop offset="1" stop-color="#7427F1"/>
</linearGradient>
</defs>
</svg>
