<svg width="88" height="92" viewBox="0 0 88 92" fill="none" xmlns="http://www.w3.org/2000/svg">
<ellipse opacity="0.5" cx="43.8" cy="47" rx="43.8" ry="45" fill="url(#paint0_linear)" fill-opacity="0.3"/>
<path d="M30.065 52.6399C42.4459 52.6399 52.4826 42.6469 52.4826 30.32C52.4826 17.993 42.4459 8 30.065 8C17.6842 8 7.64746 17.993 7.64746 30.32C7.64746 42.6469 17.6842 52.6399 30.065 52.6399Z" fill="#FF305C"/>
<path d="M33.0946 40.5542V43.7254H27.6846V40.6686C25.4327 40.1367 23.6001 38.844 22.1597 36.8241L25.737 32.9795C26.7784 34.3261 28.5299 35.4775 30.1056 35.4775C31.005 35.4775 31.4581 35.1678 31.4581 34.5214C31.4581 33.9625 31.0929 33.6798 30.1056 33.2286C28.158 32.3332 26.7514 31.5723 25.879 30.9529C24.0464 29.6601 23.147 27.9769 23.147 25.8762C23.147 22.8733 24.8917 20.7658 27.6846 19.8973V16.9213H33.0946V19.7289C34.535 20.0656 35.9957 20.8264 37.551 21.971L34.792 26.3744C33.1216 25.3375 31.7083 24.8326 30.5857 24.8326C29.6525 24.8326 29.1791 25.1423 29.1791 25.7617C29.1791 26.1859 29.5713 26.5226 29.9433 26.7178C30.3084 26.9131 31.2417 27.3103 31.6068 27.5056C32.114 27.7614 34.1698 28.6569 35.218 29.3572C37.0506 30.5624 37.9771 32.1648 37.9771 34.1578C37.9703 37.3223 36.0498 39.625 33.0946 40.5542Z" fill="#262626"/>
<path d="M6.17306 44.1832C7.92469 44.1832 9.34466 42.7695 9.34466 41.0255C9.34466 39.2815 7.92469 37.8677 6.17306 37.8677C4.42144 37.8677 3.00146 39.2815 3.00146 41.0255C3.00146 42.7695 4.42144 44.1832 6.17306 44.1832Z" fill="#FF305C"/>
<path d="M64.9729 40.8167C66.7245 40.8167 68.1445 39.4029 68.1445 37.6589C68.1445 35.9149 66.7245 34.5012 64.9729 34.5012C63.2212 34.5012 61.8013 35.9149 61.8013 37.6589C61.8013 39.4029 63.2212 40.8167 64.9729 40.8167Z" fill="#FF305C"/>
<path d="M71.3161 16.3894C73.0678 16.3894 74.4877 14.9756 74.4877 13.2316C74.4877 11.4876 73.0678 10.0738 71.3161 10.0738C69.5645 10.0738 68.1445 11.4876 68.1445 13.2316C68.1445 14.9756 69.5645 16.3894 71.3161 16.3894Z" fill="#FF305C"/>
<path d="M78.4775 62.726H46.9644V44.7286H78.4775V62.726ZM48.655 61.0427H76.7868V46.4119H48.655V61.0427Z" fill="#262626"/>
<path d="M52.1851 59.2652C51.9282 58.4438 51.2722 57.8109 50.4404 57.5752V49.8457C51.2587 49.6168 51.9079 48.9906 52.1716 48.1894H73.2705C73.5342 48.9906 74.1834 49.6168 75.0017 49.8457V57.5752C74.1699 57.8109 73.514 58.4438 73.257 59.2652H52.1851Z" fill="#FF305C"/>
<path d="M62.7211 57.1376C60.8276 57.1376 59.2925 55.6092 59.2925 53.7239C59.2925 51.8387 60.8276 50.3103 62.7211 50.3103C64.6145 50.3103 66.1496 51.8387 66.1496 53.7239C66.1496 55.6092 64.6145 57.1376 62.7211 57.1376ZM62.7211 52.0003C61.7608 52.0003 60.9831 52.7746 60.9831 53.7307C60.9831 54.6868 61.7608 55.4611 62.7211 55.4611C63.6813 55.4611 64.459 54.6868 64.459 53.7307C64.459 52.7746 63.6813 52.0003 62.7211 52.0003Z" fill="#262626"/>
<path d="M71.6539 52.8823H67.6641V54.5656H71.6539V52.8823Z" fill="#262626"/>
<path d="M57.7775 52.8823H53.7876V54.5656H57.7775V52.8823Z" fill="#262626"/>
<path d="M24.1541 77.404H17.1685V73.142H18.8658V75.714H22.4567V73.142H24.1541V77.404Z" fill="#262626"/>
<path d="M37.9021 77.404H30.9165V72.9804H32.6139V75.714H36.2047V71.7146H37.9021V77.404Z" fill="#262626"/>
<path d="M13.3684 51.2395H11.6777V43.5235L12.5028 43.5033C12.5501 43.4965 12.5907 43.4965 12.6312 43.4965C14.5924 43.4965 16.4858 44.3179 17.8248 45.7521L16.5873 46.8967C15.742 45.9877 14.5991 45.402 13.3751 45.2336V51.2395H13.3684Z" fill="#262626"/>
<path d="M30.9167 74.2395H21.6116C20.2456 74.2395 18.8998 74.0375 17.6082 73.6403C14.1864 72.5832 11.3056 70.193 9.63526 67.0352H7.88378L7.05199 66.0252L7.31573 64.7661H6.16611L5.3208 63.9245V56.5519L6.16611 55.7102H8.89139C10.2371 52.0475 13.1788 49.0849 16.8643 47.7181L17.4594 49.2937C14.0647 50.5595 11.3935 53.3671 10.3115 56.8077L9.50677 57.4002H7.01818V63.0829H8.35715L9.18893 64.0928L8.9252 65.3519H10.1627L10.9269 65.83C12.3538 68.7992 14.9708 71.0615 18.1154 72.0311C19.2447 72.3812 20.4214 72.5563 21.6183 72.5563H30.9167C31.2278 72.5563 31.5524 72.5428 31.8635 72.5159C32.7156 72.4485 33.5541 72.2869 34.3656 72.0445C35.1906 71.7954 35.9886 71.452 36.746 71.0279C40.4518 68.9339 42.7578 65.0018 42.7578 60.76V60.3358C42.7578 56.6798 41.0943 53.2863 38.1932 51.0308L39.2346 49.7044C42.5482 52.2764 44.4484 56.1546 44.4484 60.3358V60.76C44.4484 65.6078 41.8178 70.0987 37.5778 72.4889C36.7122 72.9737 35.7992 73.3642 34.8525 73.6537C33.926 73.9365 32.959 74.1183 31.992 74.1924C31.6403 74.226 31.2752 74.2395 30.9167 74.2395Z" fill="#262626"/>
<path d="M26.5416 46.8698H22.7344V48.553H26.5416V46.8698Z" fill="#262626"/>
<path d="M16.5395 59.2922H14.8488C14.8488 58.7131 14.3755 58.2418 13.7939 58.2418C13.2123 58.2418 12.739 58.7131 12.739 59.2922H11.0483C11.0483 57.784 12.2791 56.5518 13.8007 56.5518C15.3222 56.5518 16.5395 57.784 16.5395 59.2922Z" fill="#262626"/>
<path d="M22.9032 54.8686H16.3301V43.5235L17.1551 43.5033C17.2024 43.4965 17.243 43.4965 17.2836 43.4965C21.1923 43.4965 24.3707 46.661 24.3707 50.5527C24.3707 51.9667 23.9514 53.3335 23.1602 54.4983L22.9032 54.8686ZM18.0207 53.1853H21.9835C22.4366 52.3841 22.6733 51.4819 22.6733 50.5527C22.6733 47.8393 20.6445 45.5905 18.0207 45.2336V53.1853Z" fill="#262626"/>
<path d="M39.823 46.0753C39.823 49.6976 36.8746 52.64 33.2296 52.64C29.5914 52.64 26.6362 49.6976 26.6362 46.0753C26.6362 42.4529 29.5847 39.5106 33.2296 39.5106C36.8746 39.5106 39.823 42.4529 39.823 46.0753Z" fill="#DBDBDB"/>
<path d="M34.0679 48.7146H32.3705V44.7421L31.7348 45.402L30.5176 44.2304L32.6072 42.0759L34.0679 42.6549V48.7146Z" fill="#262626"/>
<path d="M34.6157 47.8461H31.7822V49.5293H34.6157V47.8461Z" fill="#262626"/>
<path d="M78.0852 64.6112H46.7817V66.2945H78.0852V64.6112Z" fill="#262626"/>
<path d="M78.0852 67.5603H46.7817V69.2435H78.0852V67.5603Z" fill="#262626"/>
<path d="M78.0852 70.5093H46.7817V72.1926H78.0852V70.5093Z" fill="#262626"/>
<path d="M78.0852 73.4584H46.7817V75.1417H78.0852V73.4584Z" fill="#262626"/>
<path d="M63.1672 23.0146H61.4766V31.175H63.1672V23.0146Z" fill="#262626"/>
<path d="M63.1672 18.7391H61.4766V21.4593H63.1672V18.7391Z" fill="#262626"/>
<path d="M66.9743 29.3302H65.2837V37.4906H66.9743V29.3302Z" fill="#262626"/>
<path d="M66.9743 25.0547H65.2837V27.7749H66.9743V25.0547Z" fill="#262626"/>
<defs>
<linearGradient id="paint0_linear" x1="-2.61068e-06" y1="92" x2="62.021" y2="-13.0952" gradientUnits="userSpaceOnUse">
<stop stop-color="#00DFEC"/>
<stop offset="1" stop-color="#7427F1"/>
</linearGradient>
</defs>
</svg>
