<svg width="112" height="102" viewBox="0 0 112 102" fill="none" xmlns="http://www.w3.org/2000/svg">
<ellipse opacity="0.5" rx="43.8" ry="45" transform="matrix(-1 0 0 1 58.2 51)" fill="url(#paint0_linear)" fill-opacity="0.3"/>
<path d="M22.1248 61.836L24.8747 64.5899L22.628 67.245C23.3559 68.316 23.8682 69.495 24.1647 70.719L27.7324 71.0159V74.9129L24.2726 75.2009C24.0389 76.4339 23.5806 77.6309 22.9066 78.7379L25.2162 81.4739L22.4663 84.2279L19.8152 81.9779C18.7458 82.7069 17.5686 83.2199 16.3554 83.5169L16.0588 87.0899H12.1676L11.8801 83.6249C10.6489 83.3909 9.44469 82.932 8.34832 82.257L5.6164 84.57L2.86649 81.8159L5.11314 79.1609C4.38523 78.09 3.87299 76.911 3.57643 75.696L0.00875092 75.399V71.5019L3.4686 71.2139C3.70225 69.9809 4.16056 68.7839 4.83456 67.6769L2.525 64.9409L5.2749 62.187L7.92595 64.437C8.99536 63.708 10.1726 63.195 11.3858 62.898L11.6824 59.325H15.5735L15.8611 62.7899C17.0923 63.0239 18.2965 63.483 19.3928 64.158L22.1248 61.836ZM10.8196 70.1429C9.13016 71.8349 9.13016 74.5709 10.8196 76.2539C12.5091 77.9459 15.241 77.9459 16.9215 76.2539C18.611 74.5619 18.611 71.8259 16.9215 70.1429C15.241 68.4599 12.5001 68.4599 10.8196 70.1429Z" fill="#FF305C"/>
<path d="M104.658 45.465L108.262 49.074L105.323 52.548C106.276 53.952 106.95 55.491 107.336 57.093L112 57.48V62.583L107.471 62.961C107.165 64.581 106.563 66.147 105.682 67.596L108.711 71.178L105.107 74.787L101.638 71.844C100.237 72.798 98.6998 73.473 97.1092 73.851L96.7228 78.522H91.6274L91.2499 73.986C89.6324 73.68 88.0687 73.077 86.6218 72.195L83.0452 75.228L79.4415 71.619L82.3802 68.145C81.4276 66.741 80.7536 65.202 80.3762 63.6L75.7121 63.213V58.11L80.2414 57.732C80.5469 56.112 81.149 54.546 82.0297 53.097L79.0012 49.515L82.6048 45.906L86.0737 48.849C87.4756 47.895 89.0123 47.22 90.6029 46.842L90.9893 42.171H96.0847L96.4622 46.707C98.0798 47.013 99.6434 47.616 101.09 48.498L104.658 45.465ZM89.857 56.346C87.6463 58.56 87.6463 62.142 89.857 64.347C92.0677 66.561 95.6444 66.561 97.8461 64.347C100.057 62.133 100.057 58.551 97.8461 56.346C95.6444 54.132 92.0587 54.132 89.857 56.346Z" fill="#FF305C"/>
<path d="M27.5527 39.453C27.5527 40.101 27.6336 40.731 27.7774 41.334C28.0739 41.334 41.7605 41.352 42.8479 41.352C43.0007 40.749 43.0815 40.11 43.0815 39.453C43.0815 35.16 39.6037 31.677 35.3171 31.677C31.0305 31.677 27.5527 35.16 27.5527 39.453Z" fill="#FF305C"/>
<path d="M44.2769 42.351V40.506H42.9558V42.351H44.2769ZM40.3138 42.351V40.506H38.9927V42.351H40.3138ZM36.3507 42.342V40.497H35.0386L35.0296 42.342H36.3507ZM32.3966 42.342V40.497H31.0755V42.342H32.3966ZM28.4335 42.333V40.488H27.1125V42.333H28.4335ZM24.4794 40.416L26.3037 40.173C26.2497 39.777 26.2228 39.381 26.2228 38.976C26.2228 38.832 26.2228 38.697 26.2318 38.562L24.3895 38.481C24.3805 38.643 24.3805 38.814 24.3805 38.985C24.3805 39.462 24.4165 39.948 24.4794 40.416ZM46.2359 39.624C46.2449 39.417 46.2539 39.201 46.2539 38.985C46.2539 38.724 46.2449 38.454 46.2269 38.184L44.3847 38.319C44.4027 38.544 44.4117 38.769 44.4117 38.985C44.4117 39.165 44.4027 39.345 44.3937 39.516L46.2359 39.624ZM26.6541 36.213C26.771 35.835 26.9237 35.457 27.0945 35.097L25.432 34.305C25.2253 34.737 25.0545 35.187 24.9107 35.646L26.6541 36.213ZM43.8994 35.979L45.6428 35.367C45.4811 34.917 45.2923 34.467 45.0767 34.044L43.4321 34.881C43.6118 35.232 43.7736 35.601 43.8994 35.979ZM28.3796 33.099C28.6402 32.793 28.9188 32.505 29.2063 32.235L27.9662 30.867C27.6157 31.191 27.2742 31.533 26.9687 31.902L28.3796 33.099ZM42.0931 32.91L43.4681 31.677C43.1535 31.317 42.8031 30.984 42.4436 30.669L41.2394 32.073C41.5359 32.334 41.8235 32.613 42.0931 32.91ZM31.1744 30.876C31.5249 30.696 31.8933 30.534 32.2708 30.399L31.6507 28.662C31.2014 28.824 30.761 29.013 30.3297 29.238L31.1744 30.876ZM39.2444 30.768L40.0442 29.103C39.6128 28.896 39.1635 28.716 38.7141 28.572L38.148 30.327C38.5075 30.444 38.8849 30.597 39.2444 30.768ZM34.5983 29.904C34.9937 29.877 35.3981 29.868 35.7935 29.886L35.8834 28.05C35.4071 28.023 34.9218 28.032 34.4455 28.068L34.5983 29.904Z" fill="#262626"/>
<path d="M47.2963 83.3279C46.2888 83.3279 45.472 82.51 45.472 81.5009C45.472 80.4919 46.2888 79.674 47.2963 79.674C48.3038 79.674 49.1206 80.4919 49.1206 81.5009C49.1206 82.51 48.3038 83.3279 47.2963 83.3279Z" fill="#DBDBDB"/>
<path d="M47.2963 70.098H51.2414L52.0412 69.693L72.0454 42.009L71.2456 40.443H47.2963V42.414H69.3135L50.7382 68.118H47.2963V70.098Z" fill="#262626"/>
<path d="M47.2965 80.1149H49.9296L50.9091 79.2599L52.2212 69.2339L50.2621 68.9819L49.0579 78.1349H47.2965V80.1149Z" fill="#262626"/>
<path d="M43.3423 70.098H47.2964V68.118H43.8545L25.2702 42.414H47.2964V40.443H23.3381L22.5383 42.009L42.5425 69.693L43.3423 70.098Z" fill="#262626"/>
<path d="M44.6633 80.1149H47.2964V78.1349H45.526L44.3218 68.9819L42.3717 69.2339L43.6838 79.2599L44.6633 80.1149Z" fill="#262626"/>
<path d="M48.7702 64.761H50.0912V63.447H48.7702V64.761ZM51.4123 64.761H52.7333V63.447H51.4123V64.761ZM54.0543 64.761H55.3754V63.447H54.0543V64.761ZM56.6964 64.761H58.0174V63.447H56.6964V64.761ZM59.3474 64.761H60.6685V63.447H59.3474V64.761ZM61.9895 64.761H63.3105V63.447H61.9895V64.761ZM64.6315 64.761H65.9526V63.447H64.6315V64.761ZM67.2736 64.761H68.5946V63.447H67.2736V64.761ZM69.9157 64.761H71.2367V63.447H69.9157V64.761ZM72.5667 64.761H73.043C73.3486 64.761 73.6541 64.743 73.9596 64.707L73.8069 63.402C73.5552 63.429 73.2946 63.447 73.043 63.447H72.5667V64.761ZM75.3705 64.401C75.8289 64.257 76.2782 64.068 76.7006 63.843L76.0805 62.682C75.73 62.871 75.3616 63.024 74.9751 63.15L75.3705 64.401ZM77.9048 63.033C78.2822 62.727 78.6237 62.394 78.9382 62.025L77.9317 61.17C77.6711 61.476 77.3835 61.755 77.078 62.007L77.9048 63.033ZM79.765 60.846C80.0076 60.423 80.2053 59.982 80.3581 59.532L79.109 59.1C78.9832 59.478 78.8124 59.847 78.6147 60.189L79.765 60.846ZM80.6906 58.128C80.7445 57.759 80.7715 57.39 80.7715 57.021C80.7715 56.913 80.7715 56.796 80.7625 56.688L79.4505 56.742C79.4505 56.832 79.4594 56.931 79.4594 57.021C79.4594 57.327 79.4415 57.642 79.3965 57.939L80.6906 58.128ZM79.2887 55.554L80.5738 55.257C80.4659 54.789 80.3132 54.33 80.1155 53.889L78.9113 54.42C79.073 54.78 79.1988 55.158 79.2887 55.554ZM78.3271 53.367L79.4055 52.62C79.1359 52.224 78.8214 51.855 78.4799 51.513L77.5543 52.449C77.8419 52.728 78.0935 53.043 78.3271 53.367ZM76.6287 51.693L77.3656 50.604C76.9702 50.334 76.5388 50.1 76.0985 49.911L75.5772 51.117C75.9457 51.27 76.2962 51.468 76.6287 51.693ZM74.4449 50.748L74.7325 49.461C74.2652 49.353 73.7799 49.299 73.3036 49.281L73.2587 50.595C73.6541 50.604 74.0495 50.658 74.4449 50.748ZM67.9836 50.595H69.3046V49.281H67.9836V50.595ZM70.6346 50.595H71.9556V49.281H70.6346V50.595Z" fill="white"/>
<path d="M46.7751 63.438H47.4312V64.752H46.7751V63.438Z" fill="white"/>
<path d="M46.7663 28.239L46.8742 25.08C46.4967 25.071 46.1283 25.026 45.7598 24.963L45.2117 28.077C45.7239 28.167 46.2451 28.221 46.7663 28.239ZM52.7424 26.754C53.1918 26.493 53.6231 26.205 54.0365 25.881L52.0954 23.388C51.7988 23.622 51.4933 23.829 51.1698 24.018L52.7424 26.754ZM39.6759 25.368L41.7878 23.019C41.5092 22.767 41.2486 22.497 41.0059 22.209L38.5885 24.243C38.921 24.639 39.2895 25.017 39.6759 25.368ZM57.6761 20.895C57.8558 20.409 57.9996 19.905 58.1074 19.392L55.016 18.735C54.9352 19.095 54.8363 19.464 54.7105 19.806L57.6761 20.895ZM36.0813 18.6L39.2086 18.159C39.1547 17.79 39.1277 17.412 39.1277 17.043V17.007L35.9644 17.025V17.043C35.9734 17.565 36.0094 18.087 36.0813 18.6ZM54.7195 14.307L57.694 13.236C57.5143 12.75 57.3076 12.264 57.065 11.805L54.2701 13.29C54.4409 13.614 54.5937 13.956 54.7195 14.307ZM40.3679 12.759C40.5656 12.444 40.7902 12.138 41.0329 11.859L38.6245 9.816C38.292 10.212 37.9774 10.635 37.6989 11.076L40.3679 12.759ZM51.1967 10.086L52.7874 7.35C52.338 7.089 51.8707 6.855 51.3854 6.657L50.1902 9.591C50.5317 9.735 50.8732 9.897 51.1967 10.086ZM44.7084 9.384C45.0589 9.267 45.4273 9.177 45.7958 9.114L45.2566 6C44.7444 6.09 44.2321 6.216 43.7379 6.369L44.7084 9.384Z" fill="#FF305C"/>
<path d="M62.6726 38.922H62.6996C63.1759 38.922 63.6611 38.868 64.1195 38.751L63.8139 37.473C63.4545 37.563 63.086 37.599 62.7176 37.608H62.6996V38.274L62.6546 38.931L62.6726 38.922ZM60.9831 38.679L61.3516 37.41C60.9921 37.302 60.6416 37.158 60.3181 36.969L59.6621 38.112C60.0755 38.355 60.5248 38.544 60.9831 38.679ZM65.7191 38.112C66.1325 37.869 66.5189 37.581 66.8694 37.248L65.9617 36.294C65.6921 36.555 65.3866 36.78 65.0631 36.969L65.7191 38.112ZM58.3141 37.041L59.2667 36.132C59.0061 35.862 58.7814 35.556 58.5927 35.232L57.4514 35.889C57.6851 36.303 57.9816 36.69 58.3141 37.041ZM67.9298 35.898C68.1724 35.484 68.3611 35.034 68.4959 34.575L67.2288 34.206C67.121 34.566 66.9772 34.917 66.7885 35.241L67.9298 35.898ZM56.8044 34.287L58.0805 33.981C57.9906 33.621 57.9457 33.243 57.9457 32.865L56.6336 32.847V32.865C56.6426 33.342 56.6965 33.819 56.8044 34.287ZM68.7476 32.901V32.856C68.7476 32.379 68.6936 31.902 68.5858 31.443L67.3097 31.749C67.3906 32.1 67.4355 32.469 67.4355 32.838V32.865H68.7476H68.1095L68.7476 32.901ZM58.1524 31.506C58.2602 31.146 58.413 30.804 58.6017 30.471L57.4694 29.805C57.2267 30.219 57.038 30.669 56.8942 31.128L58.1524 31.506ZM66.8065 30.498L67.9478 29.841C67.7051 29.427 67.4175 29.04 67.085 28.689L66.1325 29.598C66.3931 29.868 66.6177 30.174 66.8065 30.498ZM59.4374 29.418C59.707 29.157 60.0126 28.932 60.3361 28.743L59.6801 27.6C59.2667 27.843 58.8803 28.131 58.5298 28.455L59.4374 29.418ZM65.072 28.752L65.737 27.609C65.3237 27.366 64.8743 27.177 64.416 27.042L64.0386 28.302C64.398 28.419 64.7485 28.563 65.072 28.752ZM61.5942 28.248C61.9537 28.158 62.3221 28.122 62.6996 28.122L62.7086 27.033V26.808C62.2233 26.808 61.747 26.862 61.2887 26.97L61.5942 28.248Z" fill="#262626"/>
<path d="M51.9247 96C52.4459 96 52.9582 95.919 53.4524 95.757L52.9761 94.245C52.6346 94.353 52.2752 94.407 51.9157 94.407L51.9247 96ZM49.5253 95.415L50.2622 94.02C49.9477 93.849 49.6511 93.642 49.3995 93.381L48.2851 94.506C48.6446 94.866 49.067 95.181 49.5253 95.415ZM55.5553 94.47C55.9237 94.101 56.2293 93.678 56.4629 93.219L55.061 92.49C54.8993 92.814 54.6836 93.102 54.432 93.363L55.5553 94.47ZM47 92.391L48.5098 91.923C48.402 91.581 48.348 91.221 48.348 90.861H46.7664C46.7664 91.383 46.8473 91.896 47 92.391ZM55.4564 90.825L57.0381 90.807C57.0381 90.285 56.9482 89.772 56.7954 89.277L55.2947 89.763C55.3935 90.105 55.4475 90.465 55.4564 90.825ZM48.7255 89.259C48.8872 88.935 49.0939 88.647 49.3456 88.386L48.2132 87.288C47.8538 87.666 47.5482 88.089 47.3146 88.548L48.7255 89.259ZM54.387 88.314L55.4924 87.18C55.1239 86.811 54.7016 86.514 54.2343 86.271L53.5153 87.684C53.8389 87.855 54.1264 88.062 54.387 88.314ZM50.7924 87.477C51.1339 87.369 51.4934 87.306 51.8528 87.306L51.8348 85.722C51.3136 85.731 50.8014 85.812 50.3071 85.974L50.7924 87.477Z" fill="#FF305C"/>
<path d="M51.1877 63.447H51.8438V64.761H51.1877V63.447Z" fill="white"/>
<path d="M38.328 71.619H38.6335V70.305H38.328C38.0494 70.305 37.7798 70.26 37.5192 70.188L37.1328 71.448C37.5102 71.556 37.9146 71.619 38.328 71.619ZM39.9635 71.619H41.2936V70.305H39.9635V71.619ZM35.7398 70.692L36.5756 69.675C36.297 69.441 36.0634 69.171 35.8926 68.847L34.7333 69.477C34.9939 69.945 35.3265 70.359 35.7398 70.692ZM34.266 67.974L35.5781 67.83C35.5691 67.731 35.5601 67.632 35.5601 67.533C35.5601 67.272 35.596 67.011 35.6679 66.768L34.4008 66.408C34.293 66.777 34.2391 67.155 34.2391 67.533C34.2481 67.677 34.2481 67.83 34.266 67.974ZM36.1532 65.814C36.3779 65.526 36.6475 65.292 36.962 65.121L36.315 63.978C35.8567 64.239 35.4523 64.581 35.1198 65.004L36.1532 65.814ZM37.9775 64.788C38.0943 64.77 38.2111 64.77 38.328 64.77H39.2266V63.456H38.328C38.1572 63.456 37.9865 63.465 37.8157 63.492L37.9775 64.788ZM40.5477 64.761H41.8777V63.447H40.5477V64.761ZM43.2077 64.761H44.5377V63.447H43.2077V64.761ZM45.8677 64.761H47.1978V63.447H45.8677V64.761Z" fill="white"/>
<path d="M47.1617 22.713C44.0349 22.713 41.5001 20.1745 41.5001 17.043C41.5001 13.9116 44.0349 11.373 47.1617 11.373C50.2885 11.373 52.8232 13.9116 52.8232 17.043C52.8232 20.1745 50.2885 22.713 47.1617 22.713Z" fill="white"/>
<path d="M62.6908 35.889C61.0182 35.889 59.6623 34.5311 59.6623 32.856C59.6623 31.1809 61.0182 29.823 62.6908 29.823C64.3633 29.823 65.7192 31.1809 65.7192 32.856C65.7192 34.5311 64.3633 35.889 62.6908 35.889Z" fill="#FF305C"/>
<path d="M51.8977 93.498C50.4435 93.498 49.2646 92.3174 49.2646 90.861C49.2646 89.4046 50.4435 88.224 51.8977 88.224C53.3519 88.224 54.5308 89.4046 54.5308 90.861C54.5308 92.3174 53.3519 93.498 51.8977 93.498Z" fill="white"/>
<path d="M48.0333 84.714C48.186 84.678 48.3388 84.633 48.4916 84.57C48.8061 84.444 49.1027 84.2729 49.3723 84.0659L48.878 83.4539C48.6803 83.6159 48.4556 83.7419 48.213 83.8409C48.0962 83.8859 47.9793 83.922 47.8625 83.949L48.0333 84.714ZM46.2629 84.633L46.5145 83.886C46.1551 83.769 45.8225 83.562 45.5529 83.3009L45.0048 83.8679C45.3463 84.2099 45.7866 84.471 46.2629 84.633ZM50.3877 82.6259C50.5225 82.2659 50.5854 81.8879 50.5854 81.5009C50.5854 81.3839 50.5765 81.2669 50.5675 81.1499L49.7856 81.2399C49.7946 81.3299 49.8036 81.4199 49.8036 81.5099C49.8036 81.7979 49.7497 82.0859 49.6508 82.3649L50.3877 82.6259ZM44.1061 82.32L44.87 82.122C44.8161 81.915 44.7891 81.7079 44.7891 81.5009C44.7891 81.3299 44.8071 81.1589 44.843 80.9969L44.0702 80.8349C44.0252 81.0509 44.0073 81.2759 44.0073 81.5009C43.9983 81.7799 44.0342 82.059 44.1061 82.32ZM49.2824 79.9799L49.9115 79.5029C49.6149 79.1069 49.2195 78.7829 48.7702 78.5579L48.4197 79.2689C48.7522 79.4309 49.0577 79.6739 49.2824 79.9799ZM45.4541 79.7999C45.7147 79.5209 46.0292 79.3049 46.3887 79.1699C46.6134 79.0799 46.856 79.0259 47.0986 79.0079L47.0357 78.2159C46.7212 78.2429 46.4067 78.3149 46.1101 78.4319C45.6338 78.6119 45.2294 78.8999 44.8879 79.2689L45.4541 79.7999Z" fill="#FF305C"/>
<path d="M14.8457 15.045H16.8228V17.628H14.8457V15.045Z" fill="#262626"/>
<path d="M21.6378 17.6934L22.627 19.4078L20.3937 20.7001L19.4045 18.9856L21.6378 17.6934Z" fill="#262626"/>
<path d="M20.5081 23.6189L22.7422 24.9097L21.7543 26.6247L19.5202 25.334L20.5081 23.6189Z" fill="#262626"/>
<path d="M15.0796 26.889H17.0566V29.472H15.0796V26.889Z" fill="#262626"/>
<path d="M11.5096 23.8168L12.4985 25.5312L10.2652 26.8233L9.27633 25.1088L11.5096 23.8168Z" fill="#262626"/>
<path d="M10.1461 17.8891L12.3799 19.1803L11.3916 20.8952L9.15775 19.6039L10.1461 17.8891Z" fill="#262626"/>
<path d="M81.3198 10.0859H83.2969V12.5159H81.3198V10.0859Z" fill="#262626"/>
<path d="M81.3198 18.1769H83.2969V20.6069H81.3198V18.1769Z" fill="#262626"/>
<path d="M86.3557 11.8537L87.3442 13.5686L85.2427 14.7836L84.2542 13.0687L86.3557 11.8537Z" fill="#262626"/>
<path d="M79.3665 15.9028L80.355 17.6174L78.2537 18.8324L77.2652 17.1178L79.3665 15.9028Z" fill="#262626"/>
<path d="M85.2474 15.9002L87.3486 17.1152L86.3601 18.8299L84.2589 17.6149L85.2474 15.9002Z" fill="#262626"/>
<path d="M78.2581 11.8545L80.3594 13.0695L79.3708 14.7841L77.2696 13.5691L78.2581 11.8545Z" fill="#262626"/>
<defs>
<linearGradient id="paint0_linear" x1="-2.61068e-06" y1="90" x2="62.021" y2="-15.0952" gradientUnits="userSpaceOnUse">
<stop stop-color="#00DFEC"/>
<stop offset="1" stop-color="#7427F1"/>
</linearGradient>
</defs>
</svg>
