<svg width="101" height="90" viewBox="0 0 101 90" fill="none" xmlns="http://www.w3.org/2000/svg">
<circle opacity="0.5" cx="48" cy="45" r="45" fill="url(#paint0_linear)" fill-opacity="0.3"/>
<path d="M47.7756 20.3005L41.2306 26.8455L46.5635 33.1481C44.831 35.6934 43.6119 38.4882 42.9132 41.39L34.436 42.0887V51.3429L42.6636 52.0274C43.2197 54.9576 44.3106 57.8095 45.9147 60.4332L40.4178 66.9283L46.9628 73.4733L53.2654 68.1403C55.8178 69.8728 58.6055 71.092 61.5001 71.7907L62.206 80.2679H71.4602L72.1447 72.0403C75.075 71.4841 77.9268 70.3933 80.5505 68.7891L87.0456 74.2861L93.5906 67.7411L88.2576 61.4385C89.9901 58.8861 91.2093 56.0984 91.908 53.2038L100.385 52.4979V43.2437L92.1576 42.5592C91.6014 39.6289 90.5106 36.7771 88.9064 34.1534L94.4034 27.6583L87.8584 21.1133L81.5558 26.4462C79.0105 24.7137 76.2157 23.4946 73.3211 22.7959L72.6152 14.3187H63.361L62.6765 22.5463C59.7462 23.1024 56.8944 24.1933 54.2707 25.7974L47.7756 20.3005ZM74.6686 40.0353C78.6754 44.0422 78.6754 50.5444 74.6686 54.5513C70.6617 58.5581 64.1595 58.5581 60.1526 54.5513C56.1458 50.5444 56.1458 44.0422 60.1526 40.0353C64.1595 36.0285 70.6617 36.0285 74.6686 40.0353Z" fill="#FF305C"/>
<path d="M8.95482 41.0406C7.17241 41.0406 5.7251 39.5932 5.7251 37.8108C5.7251 36.0284 7.17241 34.5811 8.95482 34.5811C10.7372 34.5811 12.1845 36.0284 12.1845 37.8108C12.1845 39.5932 10.7372 41.0406 8.95482 41.0406ZM8.95482 36.4919C8.2276 36.4919 7.62871 37.0836 7.62871 37.8108C7.62871 38.5381 8.22047 39.137 8.95482 39.137C9.68204 39.137 10.2738 38.5452 10.2738 37.8108C10.2809 37.0836 9.68917 36.4919 8.95482 36.4919Z" fill="#262626"/>
<path d="M9.91025 32.8914H7.99951V35.0446H9.91025V32.8914Z" fill="#262626"/>
<path d="M9.90977 40.5772H7.99902V42.7304H9.90977V40.5772Z" fill="#262626"/>
<path d="M5.17607 34.5245L4.2207 36.1792L6.08533 37.2558L7.0407 35.6011L5.17607 34.5245Z" fill="#262626"/>
<path d="M11.8315 38.3705L10.876 40.0252L12.7406 41.102L13.6962 39.4473L11.8315 38.3705Z" fill="#262626"/>
<path d="M6.08533 38.3685L4.2207 39.4451L5.17607 41.0998L7.0407 40.0232L6.08533 38.3685Z" fill="#262626"/>
<path d="M12.7382 34.5279L10.8735 35.6044L11.8289 37.2591L13.6935 36.1826L12.7382 34.5279Z" fill="#262626"/>
<path d="M66.1487 68.8604C65.4857 68.8533 64.8155 68.8105 64.1596 68.7463L64.3592 66.8499C64.9581 66.914 65.5712 66.9497 66.1773 66.9568L66.1487 68.8604ZM68.145 68.7963L67.9953 66.8926C68.5942 66.8427 69.2073 66.7714 69.7991 66.6645L70.1271 68.5467C69.4711 68.6608 68.801 68.7392 68.145 68.7963ZM62.1847 68.4469C61.5359 68.3186 60.8799 68.1546 60.2454 67.9621L60.7944 66.1369C61.3719 66.308 61.9636 66.4577 62.5554 66.5789L62.1847 68.4469ZM72.0735 68.1118L71.5744 66.2724C72.159 66.1155 72.7436 65.923 73.3069 65.7163L73.9771 67.5058C73.3497 67.7339 72.7151 67.9407 72.0735 68.1118ZM58.3632 67.299C57.75 67.0495 57.1369 66.7714 56.5522 66.4649L57.4292 64.768C57.9639 65.0461 58.52 65.3027 59.0833 65.5237L58.3632 67.299ZM75.8023 66.7144L74.9681 64.9962C75.5099 64.7324 76.0447 64.44 76.5651 64.1263L77.5562 65.759C76.9858 66.1012 76.394 66.4292 75.8023 66.7144ZM79.2102 64.6468L78.0766 63.1139C78.5614 62.7575 79.0391 62.3653 79.4883 61.9661L80.7574 63.3849C80.2654 63.8269 79.7449 64.2547 79.2102 64.6468ZM82.1833 61.9874L80.7859 60.6899C81.1994 60.2478 81.5915 59.7773 81.9623 59.2996L83.4738 60.4617C83.0674 60.9893 82.6325 61.5026 82.1833 61.9874ZM84.6145 58.829L83.0032 57.8095C83.324 57.2961 83.6306 56.7686 83.9015 56.2267L85.5984 57.0894C85.2989 57.6883 84.971 58.2729 84.6145 58.829ZM86.4254 55.2785L84.6501 54.5726C84.8712 54.0094 85.0708 53.4319 85.2419 52.8544L87.0742 53.3891C86.8817 54.0308 86.6678 54.6653 86.4254 55.2785ZM87.5376 51.4498L85.6625 51.0862C85.7766 50.4945 85.8622 49.8885 85.9263 49.2896L87.8228 49.4749C87.7587 50.138 87.666 50.8011 87.5376 51.4498ZM87.9298 47.4929L86.019 47.4715V47.3432C86.019 46.7799 85.9976 46.2167 85.9477 45.6535L87.8513 45.4895C87.9013 46.1026 87.9298 46.73 87.9298 47.3432V47.4929ZM85.7125 43.8568C85.6055 43.265 85.47 42.6661 85.3061 42.0815L87.1455 41.5682C87.3237 42.2098 87.4735 42.8658 87.5875 43.5146L85.7125 43.8568ZM84.7428 40.3561C84.5289 39.7929 84.2865 39.2297 84.0156 38.6878L85.7267 37.8465C86.019 38.4454 86.29 39.0585 86.5252 39.6788L84.7428 40.3561ZM83.1315 37.0979C82.8178 36.5846 82.4685 36.0784 82.112 35.5935L83.6377 34.4457C84.037 34.9733 84.4149 35.5294 84.7571 36.0926L83.1315 37.0979ZM80.957 34.1961C80.5506 33.747 80.1228 33.3121 79.6737 32.9057L80.9641 31.5011C81.4489 31.9503 81.9266 32.428 82.3687 32.9128L80.957 34.1961ZM78.2762 31.7364C77.7914 31.3728 77.2924 31.0234 76.779 30.7026L77.7914 29.0842C78.3547 29.4335 78.9037 29.8185 79.4312 30.2178L78.2762 31.7364ZM75.1962 29.8114C74.6544 29.5405 74.0983 29.2909 73.535 29.0699L74.2266 27.2946C74.8469 27.5371 75.46 27.808 76.0518 28.1074L75.1962 29.8114ZM71.8097 28.4924C71.2322 28.3284 70.6333 28.1858 70.0415 28.0789L70.3909 26.2038C71.0397 26.325 71.6956 26.4819 72.3301 26.6601L71.8097 28.4924ZM68.2448 27.8294C67.646 27.7723 67.0328 27.7438 66.4268 27.7438V25.8331C67.0898 25.8331 67.76 25.8616 68.416 25.9258L68.2448 27.8294Z" fill="#DBDBDB"/>
<path d="M5.31158 45.2328C4.62 45.0118 3.96408 44.6909 3.35806 44.2774L4.4275 42.7018C4.8838 43.0084 5.37575 43.2508 5.88908 43.4219L5.31158 45.2328ZM1.76102 42.8159C1.29759 42.2526 0.912594 41.6323 0.627409 40.9622L2.3813 40.2064C2.59519 40.7055 2.88037 41.176 3.22973 41.5967L1.76102 42.8159ZM0.057037 38.8732C0.0213889 38.5595 0 38.2458 0 37.9249C0 37.5114 0.0356491 37.105 0.0998158 36.7058L1.98204 37.0052C1.93213 37.3046 1.91074 37.6184 1.91074 37.9249C1.91074 38.1602 1.925 38.4026 1.95352 38.6379L0.057037 38.8732ZM2.45972 35.4509L0.734353 34.631C1.04806 33.9751 1.45445 33.3691 1.93213 32.8201L3.35806 34.0892C3.00158 34.5027 2.695 34.959 2.45972 35.4509ZM4.61287 33.034L3.60047 31.4156C4.22075 31.0306 4.8838 30.7311 5.58251 30.5315L6.10297 32.3638C5.57538 32.5207 5.0763 32.7488 4.61287 33.034Z" fill="#DBDBDB"/>
<path d="M8.47023 32.1428L8.32764 30.2392L10.2313 30.0966L10.3738 32.0002L8.47023 32.1428ZM12.2775 31.8648L12.1349 29.9611L14.0385 29.8185L14.1811 31.7222L12.2775 31.8648ZM16.0847 31.5796L15.9421 29.676L17.8457 29.5334L17.9883 31.437L16.0847 31.5796ZM19.8848 31.2944L19.7422 29.3908L21.6458 29.2482L21.7884 31.1518L19.8848 31.2944ZM23.692 31.0092L23.5494 29.1056L25.453 28.963L25.5956 30.8666L23.692 31.0092ZM27.4992 30.724L27.3566 28.8204L29.2602 28.6778L29.4028 30.5814L27.4992 30.724ZM31.2993 30.4388L31.1567 28.5352L33.0603 28.3926L33.2029 30.2962L31.2993 30.4388ZM35.1065 30.1536L34.964 28.25L36.8676 28.1074L37.0102 30.011L35.1065 30.1536ZM38.9138 29.8756L38.7712 27.972L40.6748 27.8294L40.8174 29.733L38.9138 29.8756ZM42.7139 29.5904L42.5713 27.6868L44.4749 27.5442L44.6175 29.4478L42.7139 29.5904ZM46.5211 29.3052L46.3785 27.4016L48.2821 27.259L48.4247 29.1626L46.5211 29.3052ZM50.3283 29.02L50.1857 27.1164L52.0893 26.9738L52.2319 28.8774L50.3283 29.02ZM54.1284 28.7348L53.9858 26.8312L55.8894 26.6886L56.032 28.5922L54.1284 28.7348ZM57.9356 28.4497L57.793 26.546L59.6967 26.4035L59.8393 28.3071L57.9356 28.4497ZM61.7429 28.1716L61.6003 26.268L63.5039 26.1254L63.6465 28.029L61.7429 28.1716ZM65.543 27.8864L65.4004 25.9828L67.304 25.8402L67.4466 27.7438L65.543 27.8864Z" fill="#DBDBDB"/>
<path d="M57.9996 67.1065L56.2385 66.3722L56.9729 64.6111L58.7339 65.3455L57.9996 67.1065ZM54.4775 65.6449L52.7165 64.9106L53.4508 63.1496L55.2119 63.8839L54.4775 65.6449ZM50.9555 64.1762L49.1945 63.4419L49.9288 61.6808L51.6898 62.4152L50.9555 64.1762ZM47.4334 62.7075L45.6724 61.9732L46.4068 60.2121L48.1678 60.9465L47.4334 62.7075ZM43.9114 61.2459L42.1504 60.5116L42.8847 58.7506L44.6458 59.4849L43.9114 61.2459ZM40.3894 59.7772L38.6283 59.0429L39.3627 57.2819L41.1237 58.0162L40.3894 59.7772ZM36.8673 58.3157L35.1063 57.5813L35.8407 55.8203L37.6017 56.5546L36.8673 58.3157ZM33.3453 56.847L31.5843 56.1126L32.3186 54.3516L34.0796 55.0859L33.3453 56.847ZM29.8232 55.3854L28.0622 54.651L28.7966 52.89L30.5576 53.6244L29.8232 55.3854ZM26.2941 53.9167L24.5331 53.1823L25.2674 51.4213L27.0284 52.1557L26.2941 53.9167ZM22.772 52.4551L21.011 51.7207L21.7454 49.9597L23.5064 50.6941L22.772 52.4551ZM19.25 50.9864L17.489 50.252L18.2233 48.491L19.9843 49.2254L19.25 50.9864ZM15.728 49.5177L13.9669 48.7833L14.7013 47.0223L16.4623 47.7567L15.728 49.5177ZM12.2059 48.0561L10.4449 47.3218L11.1792 45.5607L12.9403 46.2951L12.2059 48.0561ZM8.68387 46.5874L6.92285 45.8531L7.65721 44.092L9.41822 44.8264L8.68387 46.5874Z" fill="#DBDBDB"/>
<path d="M29.3952 80.2964L24.3403 71.0064V69.3239H26.2511V70.5216L29.3952 76.3038L32.5465 70.5216V69.3239H34.4502V71.0064L29.3952 80.2964Z" fill="#262626"/>
<path d="M34.4499 70.8354H24.3472V15.4666H26.2508V68.9246H32.5391L32.5462 15.4666H34.4499V70.8354Z" fill="#262626"/>
<path d="M30.3575 15.4666H28.4468V69.4665H30.3575V15.4666Z" fill="#262626"/>
<path d="M34.4716 15.7019H24.3262V10.6256C24.3262 9.73435 25.0534 9 25.9517 9H32.8532C33.7515 9 34.4788 9.72722 34.4788 10.6256V15.7019H34.4716ZM26.2298 13.7911H32.5609V10.9107H26.2298V13.7911Z" fill="#262626"/>
<path d="M27.6416 76.1683L27.3564 74.279C28.6612 74.0794 30.0229 74.0722 31.3348 74.2647L31.0639 76.1541C29.9374 75.9972 28.761 76.0044 27.6416 76.1683Z" fill="#262626"/>
<path d="M61.6857 55.9415H73.029C73.1074 54.8721 73.3498 53.4747 74.0271 52.5763C78.2122 47.1863 78.4831 42.053 78.4831 41.6894C78.4831 35.5508 73.5066 30.5743 67.368 30.5743C61.2294 30.5743 56.2529 35.5436 56.2529 41.6894C56.2529 42.053 56.5167 47.1863 60.7018 52.5763C61.3863 53.4747 61.6144 54.8721 61.6857 55.9415Z" fill="white"/>
<path d="M63.1618 43.5301L61.2812 43.8688L63.482 56.0854L65.3626 55.7466L63.1618 43.5301Z" fill="#262626"/>
<path d="M71.5902 43.5252L69.3906 55.7418L71.2712 56.0803L73.4707 43.8638L71.5902 43.5252Z" fill="#262626"/>
<path d="M70.2911 46.2096L69.0648 45.518L67.8314 46.2096H66.8974L65.6711 45.518L64.4448 46.2096H63.5108L61.814 45.2542L62.7551 43.593L63.9742 44.2846L65.2005 43.593H66.1417L67.368 44.2846L68.5942 43.593H69.5282L70.7617 44.2846L71.988 43.593L72.9219 45.2542L71.2251 46.2096H70.2911Z" fill="#262626"/>
<path d="M73.785 55.1216H60.9517V57.0323H73.785V55.1216Z" fill="#262626"/>
<path d="M73.7845 58.501H60.9512V60.4118H73.7845V58.501Z" fill="#262626"/>
<path d="M71.5674 61.8734H63.1758V63.7842H71.5674V61.8734Z" fill="#262626"/>
<path d="M65.0577 56.2267H63.147V59.1784H65.0577V56.2267Z" fill="#262626"/>
<defs>
<linearGradient id="paint0_linear" x1="3" y1="90" x2="64.199" y2="-16.5434" gradientUnits="userSpaceOnUse">
<stop stop-color="#00DFEC"/>
<stop offset="1" stop-color="#7427F1"/>
</linearGradient>
</defs>
</svg>
