<svg width="95" height="93" viewBox="0 0 95 93" fill="none" xmlns="http://www.w3.org/2000/svg">
<ellipse opacity="0.5" cx="46.8" cy="48" rx="43.8" ry="45" fill="url(#paint0_linear)" fill-opacity="0.3"/>
<path d="M59.3752 14.6512C59.3752 21.084 54.1568 26.3024 47.724 26.3024C41.2912 26.3024 36.0728 21.0928 36.0728 14.6512C36.0816 8.2184 41.2912 3 47.724 3C54.1568 3 59.3752 8.2184 59.3752 14.6512Z" fill="#FF305C"/>
<path d="M44.1074 20.908V8.39441L54.949 14.6512L44.1074 20.908ZM46.2458 12.0992V17.1944L50.6546 14.6424L46.2458 12.0992Z" fill="#262626"/>
<path d="M82.281 49.9921H80.1338V57.4545H82.281V49.9921Z" fill="#262626"/>
<path d="M84.9302 52.6497H77.4678V54.7969H84.9302V52.6497Z" fill="#262626"/>
<path d="M27.4666 21.8673H3.30176V12.3809H32.5002V14.5281H5.44016V19.7201H27.4666V21.8673Z" fill="#262626"/>
<path d="M9.62992 15.9976H7.24512V18.1448H9.62992V15.9976Z" fill="#262626"/>
<path d="M13.7564 15.9976H11.3716V18.1448H13.7564V15.9976Z" fill="#262626"/>
<path d="M17.8921 15.9976H15.5073V18.1448H17.8921V15.9976Z" fill="#262626"/>
<path d="M72.0647 35.1903H16.8447V51.0919H72.0647V35.1903Z" fill="#DBDBDB"/>
<path d="M33.3359 54.0223H16.8447V62.9015H33.3359V54.0223Z" fill="#FF305C"/>
<path d="M33.3359 65.2953H16.8447V67.4425H33.3359V65.2953Z" fill="#262626"/>
<path d="M33.3359 70.3464H16.8447V72.4936H33.3359V70.3464Z" fill="#262626"/>
<path d="M52.7051 65.2953H36.2139V67.4425H52.7051V65.2953Z" fill="#262626"/>
<path d="M57.2892 41.9928H31.6284V44.14H57.2892V41.9928Z" fill="#262626"/>
<path d="M52.7051 70.3464H36.2139V72.4936H52.7051V70.3464Z" fill="#262626"/>
<path d="M72.0649 65.2953H55.5737V67.4425H72.0649V65.2953Z" fill="#262626"/>
<path d="M72.0649 70.3464H55.5737V72.4936H72.0649V70.3464Z" fill="#262626"/>
<path d="M52.7046 54.0223H36.2134V62.9015H52.7046V54.0223Z" fill="#FF305C"/>
<path d="M72.0644 54.0223H55.5732V62.9015H72.0644V54.0223Z" fill="#FF305C"/>
<path d="M43.5086 30.1567H22.4414V32.3039H43.5086V30.1567Z" fill="#262626"/>
<path d="M19.4583 30.1567H16.8447V32.3039H19.4583V30.1567Z" fill="#262626"/>
<path d="M93.5369 45.2576H62.6841V19.2008H93.5281V45.2576H93.5369ZM64.8313 43.1192H91.3897V21.3392H64.8313V43.1192Z" fill="#262626"/>
<path d="M90.897 40.2152L85.4234 35.5248L78.8146 39.9336L70.3754 30.852L64.5322 36.8888L62.9922 35.4016L70.4106 27.7368L79.149 37.1352L85.5906 32.8496L92.2874 38.5872L90.897 40.2152Z" fill="#262626"/>
<path d="M83.1086 27.3408C83.1086 29.2328 81.5774 30.764 79.6854 30.764C77.7934 30.764 76.2622 29.2328 76.2622 27.3408C76.2622 25.4488 77.7934 23.9176 79.6854 23.9176C81.5774 23.9088 83.1086 25.44 83.1086 27.3408Z" fill="#DBDBDB"/>
<path d="M9.99899 33.3071H7.85179V31.7143H5.48459V33.3071H3.34619V31.1247C3.34619 30.2623 4.05019 29.5671 4.91259 29.5671H8.43259C9.29499 29.5671 9.99899 30.2623 9.99899 31.1247V33.3071Z" fill="#262626"/>
<path d="M6.6721 73.3911L3.3457 66.0519V64.8727H5.4929V65.5855L6.6721 68.1991L7.8513 65.5855V64.8727H9.9985V66.0519L6.6721 73.3911Z" fill="#262626"/>
<path d="M10.0426 65.7967H3.30176V34.6359H10.0426V65.7967ZM5.44016 63.6583H7.89536V36.7831H5.44016V63.6583Z" fill="#262626"/>
<path d="M2.5012 79.2168H0.354004V81.364H2.5012V79.2168Z" fill="#262626"/>
<path d="M7.49871 79.2168H4.99951V81.364H7.49871V79.2168Z" fill="#262626"/>
<path d="M12.1452 79.2168H9.99805V81.364H12.1452V79.2168Z" fill="#262626"/>
<path d="M12.1452 83.8544H9.99805V86.3536H12.1452V83.8544Z" fill="#262626"/>
<path d="M12.1452 88.8528H9.99805V91H12.1452V88.8528Z" fill="#262626"/>
<path d="M7.49871 88.8528H4.99951V91H7.49871V88.8528Z" fill="#262626"/>
<path d="M2.50072 88.8528H0.353516V91H2.50072V88.8528Z" fill="#262626"/>
<path d="M2.50072 83.8544H0.353516V86.3536H2.50072V83.8544Z" fill="#262626"/>
<defs>
<linearGradient id="paint0_linear" x1="3" y1="93" x2="65.021" y2="-12.0952" gradientUnits="userSpaceOnUse">
<stop stop-color="#00DFEC"/>
<stop offset="1" stop-color="#7427F1"/>
</linearGradient>
</defs>
</svg>
