<svg width="168" height="15" viewBox="0 0 168 15" fill="none" xmlns="http://www.w3.org/2000/svg">
<path d="M0 12.1363L1.4887 10.7044C2.27478 12.1363 3.58956 12.8592 4.98087 12.8592C6.43478 12.8592 7.38783 12.0042 7.38783 10.9338C7.38783 10.2248 6.9287 9.61318 5.99652 9.11968C5.76696 9.00151 5.28696 8.79299 4.56348 8.48716C3.85391 8.16047 3.30435 7.89635 2.94261 7.68783C1.50957 6.83289 0.806956 5.68602 0.806956 4.27502C0.806956 3.16985 1.21043 2.23151 2.0313 1.48778C2.85217 0.744053 3.92348 0.361755 5.23826 0.361755C7.01217 0.361755 8.44522 1.02903 9.53739 2.38442L8.18087 3.89273C7.39478 2.91962 6.42087 2.44003 5.25913 2.44003C4.03478 2.44003 3.15826 3.1073 3.15826 4.15686C3.15826 4.82413 3.56174 5.39409 4.34087 5.83893C4.5913 5.971 5.10609 6.24208 5.92696 6.62437C6.74783 6.98581 7.31826 7.27078 7.66609 7.4654C9.09913 8.25083 9.82261 9.37685 9.82261 10.8226C9.82261 12.0251 9.36348 13.019 8.46609 13.7975C7.5687 14.5621 6.40696 14.9444 4.98783 14.9444C2.92174 14.9374 1.01565 13.9504 0 12.1363Z" fill="#FF2C5D"/>
<path d="M16.5497 0.612C18.0941 0.612 19.2628 1.0499 20.0419 1.93264C20.8419 2.78758 21.2454 3.83714 21.2454 5.08132C21.2454 6.31855 20.828 7.3542 20.0071 8.20914C19.1863 9.06408 17.9619 9.48807 16.3619 9.48807H13.8784V14.715H11.6802V0.612H16.5497ZM16.4106 7.45846C18.108 7.45846 19.0054 6.3533 19.0054 5.03266C19.0054 3.71897 18.1497 2.66942 16.6402 2.66942H13.8715V7.45846H16.4106Z" fill="#FF2C5D"/>
<path d="M30.525 14.708L29.1894 11.2327H23.9929L22.6572 14.708H20.292L25.9059 0.605042H27.3389L32.8972 14.708H30.525ZM26.6085 4.10125L24.7024 9.21698H28.5216L26.6085 4.10125Z" fill="#FF2C5D"/>
<path d="M41.9758 14.708L38.5393 9.17528H36.668V14.708H34.4697V0.605042H39.4506C40.9184 0.605042 42.0454 1.02903 42.8315 1.86312C43.6176 2.70416 44.0141 3.71201 44.0141 4.89363C44.0141 6.74253 42.908 8.40375 40.8628 8.95981L44.6263 14.7011H41.9758V14.708ZM36.668 2.69026V7.13871H39.1097C40.8836 7.13871 41.7463 6.16562 41.7463 4.88669C41.7463 3.64946 40.9045 2.69026 39.4576 2.69026H36.668Z" fill="#FF2C5D"/>
<path d="M55.1931 14.708L50.574 8.71653L48.7027 10.9477V14.708H46.5044V0.605042H48.7027V7.95196L54.8105 0.605042H57.447L52.007 7.16652L57.9061 14.7011H55.1931V14.708Z" fill="#FF2C5D"/>
<path d="M74.1562 14.7567V0.605042H84.5632V4.31673H78.1423V6.21428H83.8328V9.89121H78.1423V14.7567H74.1562Z" fill="#212121"/>
<path d="M85.8643 14.7567V0.605042H96.2712V4.31673H89.8503V6.21428H95.5408V9.89121H89.8503V14.7567H85.8643Z" fill="#212121"/>
<path d="M97.6001 0.605042H101.621V14.7567H97.6001V0.605042Z" fill="#212121"/>
<path d="M103.729 14.7567V0.605042H107.749V10.9616H114.435V14.7498H103.729V14.7567Z" fill="#212121"/>
<path d="M115.283 0.605042H119.304V14.7567H115.283V0.605042Z" fill="#212121"/>
<path d="M129.739 14.7567L129.071 12.4421H124.8L124.09 14.7567H120.007L125.043 0.605042H128.932L133.816 14.7567H129.739ZM128.167 9.00846L126.977 5.10216L125.753 9.00846H128.167Z" fill="#212121"/>
<path d="M136.118 4.43489H132.25V0.605042H144V4.43489H140.146V14.7567H136.125V4.43489H136.118Z" fill="#212121"/>
<path d="M144.842 14.7567V0.605042H155.437V4.28197H148.87V5.85284H154.943V9.50892H148.87V11.0798H155.402V14.7567H144.842Z" fill="#212121"/>
<path d="M156.139 12.6646L158.052 9.6966C159.374 10.7879 160.772 11.3439 162.212 11.3439C163.117 11.3439 163.576 11.0937 163.576 10.6002C163.576 10.2735 163.214 9.96768 162.504 9.71745C162.33 9.66185 162.045 9.56454 161.621 9.44638C160.8 9.19615 160.028 8.94592 159.416 8.64009C157.823 7.85466 157.037 6.61048 157.037 4.90756C157.037 3.60777 157.551 2.53735 158.588 1.67546C159.624 0.813575 160.946 0.389587 162.553 0.389587C164.508 0.389587 166.254 0.966494 167.805 2.11336L166.045 5.19949C165.621 4.89365 165.064 4.64342 164.397 4.4349C163.729 4.22638 163.13 4.10822 162.616 4.10822C161.718 4.10822 161.294 4.41405 161.294 4.79634C161.294 5.25509 161.718 5.44971 162.407 5.65824C163.847 6.09613 164.744 6.40197 165.127 6.56183C167.04 7.30556 168 8.59144 168 10.3708C168 11.7123 167.464 12.8244 166.407 13.7002C165.357 14.5621 163.937 15 162.157 15C159.764 15 157.767 14.2146 156.139 12.6646Z" fill="#212121"/>
<path d="M68.5147 0.605042H64.626L61.6278 9.02931H56.8208L60.4173 12.4282V12.4352H66.7686V12.4421H68.6538L69.3217 14.7567H73.4052L68.5147 0.605042ZM65.3356 9.00846L66.5599 5.10216L67.7495 9.00846H65.3356Z" fill="#212121"/>
<path d="M60.2503 12.88L59.5825 14.7498H63.666L64.306 12.6506L60.2503 12.88Z" fill="#212121"/>
</svg>
