<svg width="154" height="15" viewBox="0 0 154 15" fill="none" xmlns="http://www.w3.org/2000/svg">
<path d="M0 12.0682L1.44367 10.6058C2.20598 12.0682 3.48099 12.8064 4.83021 12.8064C6.24014 12.8064 7.16436 11.9333 7.16436 10.84C7.16436 10.116 6.71912 9.49125 5.81514 8.98723C5.59252 8.87365 5.12704 8.66068 4.42544 8.34833C3.73734 8.01468 3.2044 7.74492 2.8536 7.53195C1.4639 6.65169 0.775802 5.48037 0.775802 4.03929C0.775802 2.91056 1.16708 1.95221 1.96312 1.19263C2.75916 0.433043 3.79806 0.0426025 5.07307 0.0426025C6.79332 0.0426025 8.18302 0.724098 9.24216 2.10839L7.92667 3.64885C7.16436 2.655 6.21991 2.16518 5.09331 2.16518C3.90599 2.16518 3.05598 2.84667 3.05598 3.91861C3.05598 4.6001 3.44726 5.18221 4.20282 5.63654C4.44568 5.77142 4.94489 6.04828 5.74093 6.43872C6.53697 6.80786 7.09015 7.09892 7.42746 7.29769C8.81716 8.09987 9.51875 9.24989 9.51875 10.7265C9.51875 11.9546 9.07351 12.9697 8.20326 13.7648C7.33301 14.5457 6.20641 14.9361 4.83021 14.9361C2.83336 14.9361 0.984931 13.921 0 12.0682Z" fill="#FF2C5D"/>
<path d="M16.0489 0.298218C17.5466 0.298218 18.6799 0.745449 19.4355 1.64701C20.2113 2.52018 20.6025 3.59211 20.6025 4.86282C20.6025 6.13352 20.1978 7.18416 19.4017 8.05733C18.6057 8.9305 17.4184 9.36353 15.8668 9.36353H13.4584V14.7019H11.3267V0.298218H16.0489ZM15.914 7.29065C17.5601 7.29065 18.4303 6.16192 18.4303 4.81313C18.4303 3.47143 17.6005 2.3995 16.1366 2.3995H13.4517V7.29065H15.914Z" fill="#FF2C5D"/>
<path d="M29.6017 14.7019L28.3065 11.1525H23.2671L21.9719 14.7019H19.6782L25.1223 0.298218H26.512L31.9022 14.7019H29.6017ZM25.8037 3.86187L23.9552 9.08667H27.6589L25.8037 3.86187Z" fill="#FF2C5D"/>
<path d="M40.7058 14.7019L37.3732 9.05118H35.5585V14.7019H33.4268V0.298218H38.257C39.6804 0.298218 40.7733 0.731251 41.5356 1.58312C42.2979 2.44209 42.6824 3.47143 42.6824 4.67825C42.6824 6.56656 41.6098 8.2632 39.6264 8.83111L43.2761 14.6948H40.7058V14.7019ZM35.5585 2.42079V6.9641H37.9264C39.6467 6.9641 40.4832 5.97025 40.4832 4.66405C40.4832 3.40044 39.6669 2.42079 38.2637 2.42079H35.5585Z" fill="#FF2C5D"/>
<path d="M53.5235 14.7019L49.0441 8.58265L47.2294 10.8614V14.7019H45.0977V0.298218H47.2294V7.80177L53.1525 0.298218H55.7093L50.4338 6.99959L56.1545 14.6948H53.5235V14.7019Z" fill="#FF2C5D"/>
<path d="M88.0435 14.7445V0.213013H91.032L95.761 7.24803L100.47 0.213013H103.499V14.7374H99.6535V8.44775L96.5166 12.9911H95.0054L91.8685 8.44775V14.7374H88.0435V14.7445Z" fill="#212121"/>
<path d="M117.132 10.4354C117.132 11.692 116.721 12.7355 115.878 13.5448C115.034 14.3469 113.955 14.7445 112.626 14.7445H105.583V0.213013H112.289C113.577 0.213013 114.589 0.567958 115.318 1.27785C116.046 1.98774 116.404 2.83251 116.404 3.79086C116.404 5.11126 115.621 6.34647 114.501 6.75821C116.222 7.17704 117.132 8.63232 117.132 10.4354ZM109.401 3.63469V5.70047H111.385C112.228 5.70047 112.599 5.23194 112.599 4.67823C112.599 4.11032 112.208 3.63469 111.553 3.63469H109.401ZM111.776 11.2802C112.727 11.2802 113.139 10.7123 113.139 10.0805C113.139 9.4345 112.707 8.90208 111.904 8.90208H109.401V11.2802H111.776Z" fill="#212121"/>
<path d="M118.556 14.7445V0.213013H128.884V3.98963H122.476V5.60109H128.399V9.35641H122.476V10.9679H128.851V14.7445H118.556Z" fill="#212121"/>
<path d="M137.998 14.7445L135.812 10.2012H134.618V14.7445H130.732V0.213013H136.75C138.47 0.213013 139.779 0.667343 140.656 1.5902C141.533 2.51306 141.985 3.69148 141.985 5.14676C141.985 6.97118 141.236 8.62522 139.61 9.49129L142.43 14.7374H137.998V14.7445ZM134.618 3.93284V6.66592H136.615C137.532 6.66592 137.978 6.05542 137.978 5.28873C137.978 4.50075 137.512 3.93284 136.709 3.93284H134.618Z" fill="#212121"/>
<path d="M142.437 12.6006L144.306 9.55514C145.594 10.6768 146.957 11.2447 148.36 11.2447C149.237 11.2447 149.689 10.9891 149.689 10.478C149.689 10.1443 149.332 9.83199 148.643 9.57643C148.475 9.51964 148.198 9.42026 147.787 9.29957C146.984 9.04401 146.235 8.78845 145.641 8.4761C144.09 7.67392 143.328 6.38902 143.328 4.64269C143.328 3.30809 143.833 2.20776 144.839 1.3204C145.844 0.433034 147.126 0 148.697 0C150.6 0 152.3 0.58921 153.818 1.76763L152.097 4.93374C151.686 4.62139 151.146 4.36583 150.492 4.14576C149.837 3.9328 149.257 3.81212 148.751 3.81212C147.874 3.81212 147.463 4.12447 147.463 4.52201C147.463 4.99054 147.874 5.1893 148.549 5.40937C149.952 5.8637 150.829 6.17605 151.2 6.33223C153.069 7.09891 154 8.41221 154 10.2437C154 11.6209 153.474 12.7567 152.448 13.6654C151.423 14.5528 150.04 15 148.299 15C145.965 15 144.022 14.1907 142.437 12.6006Z" fill="#212121"/>
<path d="M79.793 9.66168L75.8735 9.91724V14.7445H86.1681V10.9679H79.793V9.66168Z" fill="#212121"/>
<path d="M75.8734 0.213013V5.61528H72.1226L75.8734 9.33511V9.37061L75.8801 9.36351H79.7929V9.35641H85.7159V5.60109H79.7929V3.98963H86.2017V0.213013H75.8734Z" fill="#212121"/>
<path d="M68.6819 4.231L73.7752 4.2168V0.213013H70.7462L66.0375 7.25513L61.3152 0.213013H58.3267V14.7445H62.1382V8.45485L65.2751 12.9911H66.7863L69.9232 8.45485V14.7445H73.7752V9.27832L68.6819 4.231Z" fill="#212121"/>
</svg>
