<svg width="96" height="16" viewBox="0 0 96 16" fill="none" xmlns="http://www.w3.org/2000/svg">
<path d="M0 12.2664L1.45393 10.8726C2.21809 12.2664 3.50972 12.9733 4.86898 12.9733C6.28909 12.9733 7.22232 12.1384 7.22232 11.0948C7.22232 10.4081 6.77599 9.80882 5.8563 9.33078C5.63314 9.21632 5.16653 9.01432 4.45647 8.71807C3.76669 8.40162 3.2257 8.13903 2.86729 7.93704C1.46746 7.10215 0.777684 5.98446 0.777684 4.61093C0.777684 3.53365 1.16991 2.62469 1.97464 1.89752C2.77937 1.17036 3.82079 0.800049 5.11243 0.800049C6.85038 0.800049 8.25021 1.45315 9.31192 2.77282L7.98647 4.24062C7.22232 3.29127 6.26881 2.82668 5.12595 2.82668C3.92899 2.82668 3.07016 3.47979 3.07016 4.50321C3.07016 5.15631 3.46238 5.71515 4.22654 6.13933C4.46999 6.26725 4.97041 6.52984 5.77515 6.90016C6.57988 7.25701 7.14117 7.53306 7.47253 7.71485C8.87236 8.47568 9.58242 9.57316 9.58242 10.9871C9.58242 12.1586 9.13609 13.1282 8.25697 13.889C7.37785 14.6297 6.24176 15.0067 4.85545 15.0067C2.86052 15 0.98732 14.0372 0 12.2664Z" fill="#FF2C5D"/>
<path d="M16.1826 1.03571C17.6974 1.03571 18.8335 1.45989 19.5976 2.32171C20.3821 3.15661 20.7743 4.18003 20.7743 5.39197C20.7743 6.60391 20.3618 7.60713 19.5638 8.44203C18.7591 9.27692 17.5621 9.68764 15.9932 9.68764H13.5655V14.7845H11.415V1.04245H16.1826V1.03571ZM16.0473 7.71486C17.7109 7.71486 18.59 6.63758 18.59 5.35157C18.59 4.0723 17.7515 3.04888 16.2773 3.04888H13.5723V7.71486H16.0473Z" fill="#FF2C5D"/>
<path d="M29.8561 14.7778L28.551 11.3911H23.4656L22.1604 14.7778H19.8477L25.3388 1.03571H26.7386L32.1756 14.7778H29.8561ZM26.0286 4.43588L24.1621 9.41831H27.895L26.0286 4.43588Z" fill="#FF2C5D"/>
<path d="M41.0481 14.7778L37.6872 9.38466H35.8546V14.7778H33.7041V1.03571H38.5798C40.0202 1.03571 41.1225 1.44642 41.8867 2.26112C42.6508 3.08255 43.0431 4.06557 43.0431 5.21692C43.0431 7.02136 41.9611 8.63728 39.9594 9.17592L43.6382 14.7711H41.0481V14.7778ZM35.8613 3.06235V7.39168H38.2485C39.9864 7.39168 40.825 6.44233 40.825 5.19672C40.825 3.99151 40 3.06235 38.5866 3.06235H35.8613Z" fill="#FF2C5D"/>
<path d="M53.978 14.7778L49.4606 8.94027L47.628 11.115V14.7778H45.4775V1.03571H47.628V8.19291L53.606 1.03571H56.1825L50.8605 7.43207L56.6288 14.7778H53.978Z" fill="#FF2C5D"/>
<path d="M60.9365 11.142V14.7778H64.8046V10.9063L60.9365 11.142Z" fill="#212121"/>
<path d="M70.6541 2.45639C69.7817 1.51377 68.4427 1.04919 66.6236 1.04919H60.9432V7.2099H57.2847L60.9432 10.6505H66.4005C68.3143 10.6437 69.7141 10.1994 70.6 9.33754C71.5129 8.46898 71.9525 7.32436 71.9525 5.93736C71.9525 4.54363 71.5264 3.37882 70.6541 2.45639ZM66.5493 7.2099H64.8045V4.56383H66.5898C67.4081 4.56383 67.9829 5.13613 67.9829 5.89697C67.9761 6.6376 67.4554 7.2099 66.5493 7.2099Z" fill="#212121"/>
<path d="M80.426 14.7711L79.7768 12.5223H75.6178L74.9281 14.7711H70.9585L75.8613 1.04919H79.6483L84.4023 14.7711H80.426ZM78.8976 9.20288L77.7413 5.41893L76.5511 9.20288H78.8976Z" fill="#212121"/>
<path d="M96 1.04919L91.1513 10.2398V14.7711H87.2697V10.2398L82.4751 1.04919H87.0601L89.2038 5.89697L91.4016 1.04919H96Z" fill="#212121"/>
</svg>
