<svg width="154" height="16" viewBox="0 0 154 16" fill="none" xmlns="http://www.w3.org/2000/svg">
<path d="M61.6362 10.8971V15.1602H65.5873V10.6464L61.6362 10.8971Z" fill="#262626"/>
<path d="M71.9092 4.67714V0.96582H61.6365V6.58296H57.7842L61.6365 10.2943H65.5875H71.1684V6.58296H65.5875V4.67714H71.9092Z" fill="#262626"/>
<path d="M75.2186 14.2571C74.0333 13.3544 73.2925 11.6993 73.2925 9.54274V0.966553H77.2929V9.54274C77.2929 10.947 78.1325 11.6492 79.2685 11.6492C80.4044 11.6492 81.244 10.947 81.244 9.54274V0.966553H85.2445V9.54274C85.2445 14.0064 82.1824 15.511 79.2685 15.511C77.7868 15.5611 76.4533 15.1097 75.2186 14.2571Z" fill="#262626"/>
<path d="M96.6034 0.966553H100.505V15.3103H97.3936L91.5164 8.23875V15.3103H87.6147V0.966553H90.578L96.6034 8.13844V0.966553Z" fill="#262626"/>
<path d="M111.914 0.966553H115.816V15.3103H112.704L106.827 8.23875V15.3103H102.925V0.966553H105.889L111.914 8.13844V0.966553Z" fill="#262626"/>
<path d="M118.186 15.3103V0.966553H128.755V4.67788H122.186V6.28278H128.261V9.99411H122.186V11.599H128.706V15.3103H118.186Z" fill="#262626"/>
<path d="M130.83 15.3103V0.966553H134.83V11.4485H141.497V15.3103H130.83Z" fill="#262626"/>
<path d="M141.991 13.204L143.917 10.1949C145.251 11.2982 146.634 11.8499 148.066 11.8499C148.955 11.8499 149.399 11.5991 149.399 11.0976C149.399 10.7465 149.054 10.4456 148.313 10.1949C148.165 10.1447 147.868 10.0444 147.424 9.9441C146.584 9.69333 145.844 9.44257 145.251 9.14165C143.67 8.33921 142.88 7.08539 142.88 5.38019C142.88 4.07622 143.374 2.97286 144.411 2.12026C145.448 1.26766 146.782 0.816284 148.362 0.816284C150.288 0.816284 152.066 1.41812 153.597 2.57163L151.819 5.68111C151.375 5.38019 150.832 5.12943 150.19 4.92881C149.498 4.7282 148.906 4.57774 148.412 4.57774C147.523 4.57774 147.078 4.87866 147.078 5.27988C147.078 5.73126 147.523 5.93187 148.165 6.13248C149.597 6.58386 150.486 6.88478 150.881 7.03523C152.807 7.78753 153.746 9.0915 153.746 10.897C153.746 12.2511 153.202 13.3545 152.165 14.2572C151.128 15.1098 149.696 15.5612 147.918 15.5612C145.597 15.5612 143.621 14.7588 141.991 13.204Z" fill="#262626"/>
<path d="M0 12.7026L1.48165 11.2482C2.27186 12.7026 3.60535 13.4549 4.98822 13.4549C6.46987 13.4549 7.40825 12.5522 7.40825 11.499C7.40825 10.7968 6.96376 10.1448 6.02538 9.64329C5.77844 9.54298 5.33394 9.29222 4.59312 8.9913C3.90168 8.64023 3.30902 8.38946 2.9633 8.18885C1.53104 7.28609 0.790214 6.13257 0.790214 4.67814C0.790214 3.52462 1.18532 2.57171 2.02492 1.81941C2.86453 1.06712 3.95107 0.665894 5.28455 0.665894C7.06253 0.665894 8.54419 1.36804 9.63073 2.72217L8.24786 4.27691C7.45764 3.27385 6.46987 2.77232 5.28455 2.77232C4.04984 2.77232 3.16085 3.47446 3.16085 4.52768C3.16085 5.22982 3.55596 5.7815 4.34618 6.23288C4.59312 6.38334 5.13639 6.63411 5.9266 7.03533C6.76621 7.3864 7.30948 7.68732 7.6552 7.88793C9.08746 8.69038 9.82828 9.8439 9.82828 11.3485C9.82828 12.6023 9.38379 13.6054 8.44541 14.4078C7.55642 15.2103 6.3711 15.5613 4.93884 15.5613C2.9633 15.5613 1.03716 14.5583 0 12.7026Z" fill="#FF305C"/>
<path d="M16.6937 0.866577C18.2741 0.866577 19.41 1.31795 20.2002 2.2207C20.9904 3.12345 21.4349 4.17666 21.4349 5.43048C21.4349 6.6843 20.9904 7.73751 20.2002 8.64026C19.3606 9.54301 18.1259 9.94423 16.5455 9.94423H14.0267V15.3106H11.8042V0.866577H16.6937ZM16.5455 7.88797C18.2741 7.88797 19.1631 6.73446 19.1631 5.38033C19.1631 4.0262 18.2741 2.973 16.7924 2.973H13.9773V7.88797H16.5455Z" fill="#FF305C"/>
<path d="M30.7689 15.3106L29.4354 11.7497H24.2002L22.8667 15.3106H20.4961L26.1757 0.866577H27.608L33.1889 15.3106H30.7689ZM26.8178 4.47758L24.8917 9.74362H28.7439L26.8178 4.47758Z" fill="#FF305C"/>
<path d="M42.3254 15.3106L38.8683 9.64332H36.9915V15.3106H34.769V0.866577H39.8066C41.2883 0.866577 42.4242 1.31795 43.2144 2.17055C44.0047 3.02315 44.3998 4.07636 44.3998 5.28002C44.3998 7.18583 43.2638 8.89102 41.2389 9.44271L44.9924 15.3106H42.3254ZM36.9915 3.02315V7.58705H39.4609C41.2389 7.58705 42.1279 6.584 42.1279 5.28002C42.1279 4.0262 41.2883 3.02315 39.8066 3.02315H36.9915Z" fill="#FF305C"/>
<path d="M55.6607 15.3106L51.0182 9.19194L49.1414 11.499V15.3106H46.9189V0.866577H49.1414V8.3895L55.3149 0.866577H57.9819L52.4998 7.58705L58.4264 15.3106H55.6607Z" fill="#FF305C"/>
</svg>
