<svg width="123" height="16" viewBox="0 0 123 16" fill="none" xmlns="http://www.w3.org/2000/svg">
<path d="M61.0366 13.3429L62.9688 10.3556C64.302 11.4536 65.7065 12.0168 67.1538 12.0168C68.0593 12.0168 68.5227 11.7673 68.5227 11.2611C68.5227 10.9331 68.1591 10.6266 67.439 10.377C67.2679 10.32 66.9756 10.2202 66.555 10.1061C65.7279 9.85656 64.9508 9.60703 64.3376 9.29332C62.7335 8.50193 61.9421 7.24711 61.9421 5.52886C61.9421 4.21701 62.4625 3.13331 63.5035 2.27063C64.5444 1.40081 65.8776 0.980164 67.4961 0.980164C69.4638 0.980164 71.2177 1.55767 72.7791 2.7198L71.0038 5.82832C70.5761 5.52174 70.02 5.2722 69.3426 5.05832C68.6653 4.84443 68.0664 4.73035 67.546 4.73035C66.6405 4.73035 66.2127 5.03692 66.2127 5.42192C66.2127 5.88535 66.6405 6.07785 67.3321 6.29174C68.7794 6.73378 69.6849 7.04748 70.0699 7.19721C72.002 7.95295 72.9645 9.24341 72.9645 11.0401C72.9645 12.3876 72.4226 13.5069 71.3603 14.3981C70.298 15.2679 68.8721 15.71 67.0754 15.71C64.687 15.6957 62.6764 14.9043 61.0366 13.3429Z" fill="#212121"/>
<path d="M105.932 15.4462L103.672 10.9902H102.438V15.4462H98.4243V1.18692H104.634C106.41 1.18692 107.757 1.62896 108.67 2.53442C109.575 3.43988 110.038 4.60202 110.038 6.02795C110.038 7.82462 109.268 9.44304 107.586 10.2915L110.502 15.4462H105.932ZM102.438 4.8373V7.51804H104.506C105.454 7.51804 105.918 6.91915 105.918 6.17054C105.918 5.40054 105.433 4.8373 104.606 4.8373H102.438Z" fill="#212121"/>
<path d="M114.48 5.04406H110.581V1.18692H122.409V5.04406H118.53V15.4462H114.48V5.04406Z" fill="#212121"/>
<path d="M84.1868 13.6495L83.5522 15.4462H87.6589L88.2863 13.3929L84.1868 13.6495Z" fill="#212121"/>
<path d="M92.5424 1.18692H88.6282L85.6124 9.65693H80.75L84.4004 13.1005H84.4075L84.3932 13.1219L84.4004 13.1148H88.3716V13.1077H92.6707V13.1148H92.7135H92.6707L93.3409 15.4391H97.4476L92.5424 1.18692ZM89.3412 9.65693L90.5746 5.72137L91.7724 9.65693H89.3412Z" fill="#212121"/>
<path d="M77.5206 8.40212H81.0996V5.04406H84.9782V1.18692H73.1572V5.04406H77.05V15.4462H81.0996V11.7602L77.5206 8.40212Z" fill="#212121"/>
<path d="M0 12.8011L1.52574 11.3324C2.33139 12.8011 3.67889 13.5426 5.10482 13.5426C6.59491 13.5426 7.57167 12.6656 7.57167 11.5677C7.57167 10.8405 7.10112 10.213 6.14575 9.70684C5.91047 9.58564 5.41852 9.37176 4.67704 9.05806C3.94982 8.72296 3.38658 8.45203 3.01584 8.23814C1.54713 7.3612 0.827038 6.18481 0.827038 4.7375C0.827038 3.60389 1.24056 2.64138 2.08185 1.87851C2.92315 1.11564 4.02111 0.723511 5.36862 0.723511C7.18667 0.723511 8.65538 1.40796 9.77473 2.79824L8.38445 4.34537C7.5788 3.34722 6.58065 2.85526 5.39 2.85526C4.13519 2.85526 3.23685 3.53971 3.23685 4.61629C3.23685 5.30073 3.65037 5.88537 4.44889 6.34167C4.70556 6.47713 5.23315 6.75518 6.07445 7.14731C6.91575 7.51805 7.50038 7.81037 7.85686 8.01C9.32556 8.81565 10.067 9.97065 10.067 11.4536C10.067 12.687 9.59649 13.7066 8.67677 14.5051C7.75704 15.2894 6.56639 15.6815 5.11195 15.6815C2.99445 15.6744 1.04093 14.6548 0 12.8011Z" fill="#FF2C5D"/>
<path d="M16.9614 0.973022C18.5442 0.973022 19.742 1.4222 20.5405 2.32766C21.3604 3.2046 21.774 4.28118 21.774 5.55738C21.774 6.83359 21.3462 7.88877 20.5049 8.76572C19.6636 9.64266 18.4088 10.0776 16.7689 10.0776H14.2237V15.4391H11.9707V0.973022H16.9614ZM16.8189 8.00284C18.5585 8.00284 19.4782 6.86924 19.4782 5.51461C19.4782 4.16711 18.6013 3.09052 17.0541 3.09052H14.2165V8.00284H16.8189Z" fill="#FF2C5D"/>
<path d="M31.2846 15.4391L29.9157 11.8742H24.5898L23.221 15.4391H20.7969L26.5505 0.973022H28.0192L33.7158 15.4391H31.2846ZM27.2706 4.55924L25.3171 9.80664H29.2312L27.2706 4.55924Z" fill="#FF2C5D"/>
<path d="M43.02 15.4391L39.498 9.76386H37.5801V15.4391H35.3271V0.973022H40.432C41.9363 0.973022 43.0913 1.40794 43.897 2.2635C44.7026 3.12618 45.109 4.15998 45.109 5.37202C45.109 7.2685 43.9754 8.97248 41.8793 9.54285L45.7364 15.4319H43.02V15.4391ZM37.5801 3.11191V7.67489H40.0826C41.9007 7.67489 42.7847 6.67673 42.7847 5.36488C42.7847 4.09581 41.9221 3.11191 40.4391 3.11191H37.5801Z" fill="#FF2C5D"/>
<path d="M56.5665 15.4391L51.8325 9.29332L49.9146 11.5819V15.4391H47.6616V0.973022H49.9146V8.50905L56.1744 0.973022H58.8765L53.3012 7.7034L59.3471 15.4319H56.5665V15.4391Z" fill="#FF2C5D"/>
</svg>
