<svg width="111" height="16" viewBox="0 0 111 16" fill="none" xmlns="http://www.w3.org/2000/svg">
<path d="M0 12.8989L1.62022 11.3366C2.47575 12.8989 3.90669 13.6877 5.42091 13.6877C7.00327 13.6877 8.04052 12.7548 8.04052 11.5869C8.04052 10.8133 7.54082 10.1458 6.52629 9.60735C6.27645 9.47841 5.75404 9.25088 4.96665 8.91717C4.19439 8.56071 3.59628 8.27251 3.20258 8.04498C1.64293 7.11211 0.878248 5.8607 0.878248 4.32108C0.878248 3.11518 1.31737 2.0913 2.21076 1.27978C3.10415 0.468262 4.2701 0.0511169 5.70104 0.0511169C7.63168 0.0511169 9.19132 0.779213 10.38 2.25815L8.90362 3.90395C8.04809 2.84214 6.98813 2.31883 5.72376 2.31883C4.39124 2.31883 3.43728 3.04692 3.43728 4.19215C3.43728 4.92025 3.87641 5.54216 4.72437 6.02755C4.99693 6.17166 5.55719 6.46745 6.45058 6.88458C7.34397 7.27897 7.96481 7.58992 8.34336 7.80228C9.90301 8.6593 10.6904 9.88796 10.6904 11.4655C10.6904 12.7776 10.1907 13.8621 9.21404 14.7116C8.23736 15.5459 6.97299 15.963 5.42848 15.963C3.17987 15.963 1.10538 14.8784 0 12.8989Z" fill="#FF2C5D"/>
<path d="M18.0117 0.324158C19.6925 0.324158 20.9644 0.801976 21.8124 1.76518C22.6831 2.69805 23.1222 3.84328 23.1222 5.20087C23.1222 6.55846 22.6679 7.68094 21.7745 8.61381C20.8811 9.54668 19.5486 10.0093 17.8073 10.0093H15.1044V15.7127H12.7119V0.324158H18.0117ZM17.8603 7.80228C19.7076 7.80228 20.6843 6.59638 20.6843 5.15537C20.6843 3.72193 19.753 2.5767 18.1101 2.5767H15.0968V7.80228H17.8603Z" fill="#FF2C5D"/>
<path d="M33.2221 15.7127L31.7684 11.9206H26.1128L24.6591 15.7127H22.085L28.1948 0.324158H29.7545L35.8038 15.7127H33.2221ZM28.9595 4.13906L26.885 9.72111H31.0416L28.9595 4.13906Z" fill="#FF2C5D"/>
<path d="M45.6839 15.7127L41.9437 9.6756H39.9071V15.7127H37.5146V0.324158H42.9356C44.5331 0.324158 45.7596 0.786798 46.6151 1.69691C47.4707 2.61462 47.9022 3.71434 47.9022 5.00367C47.9022 7.0211 46.6984 8.83375 44.4725 9.44049L48.5685 15.7051H45.6839V15.7127ZM39.9071 2.59945V7.45341H42.5646C44.4952 7.45341 45.434 6.3916 45.434 4.99609C45.434 3.64609 44.5179 2.59945 42.9431 2.59945H39.9071Z" fill="#FF2C5D"/>
<path d="M60.0691 15.7127L55.0419 9.17504L53.0053 11.6096V15.7127H50.6128V0.324158H53.0053V8.34077L59.6527 0.324158H62.5221L56.6015 7.48374L63.0218 15.7051H60.0691V15.7127Z" fill="#FF2C5D"/>
<path d="M89.0288 15.7506L86.5909 10.9346H85.2584V15.7506H80.9277V0.346893H87.6282C89.5436 0.346893 90.9973 0.824715 91.9815 1.80309C92.9582 2.78146 93.4579 4.03287 93.4579 5.58007C93.4579 7.52165 92.6251 9.27363 90.8156 10.1913L93.9576 15.7582H89.0288V15.7506ZM85.266 4.28315V7.18036H87.4919C88.514 7.18036 89.0137 6.53569 89.0137 5.72417C89.0137 4.8899 88.4913 4.28315 87.5979 4.28315H85.266Z" fill="#212121"/>
<path d="M97.1525 13.7029C95.6155 12.1632 94.8433 10.2596 94.8433 8.0298C94.8433 5.80002 95.6155 3.90394 97.1525 2.3795C98.6894 0.839886 100.605 0.0662842 102.922 0.0662842C105.231 0.0662842 107.146 0.839886 108.683 2.3795C110.22 3.90394 110.992 5.80002 110.992 8.05256C110.992 10.2823 110.22 12.1784 108.683 13.7029C107.161 15.2273 105.246 15.9933 102.937 15.9933C100.635 16.0009 98.697 15.2273 97.1525 13.7029ZM105.481 10.6616C106.17 9.94863 106.518 9.07643 106.503 8.03738C106.48 6.95283 106.132 6.08064 105.443 5.39047C104.754 4.7003 103.906 4.36658 102.922 4.36658C101.922 4.36658 101.067 4.72305 100.385 5.40564C99.6963 6.09581 99.3481 6.968 99.3481 8.0298C99.3481 9.09161 99.7039 9.97139 100.385 10.654C101.074 11.3441 101.922 11.693 102.922 11.693C103.944 11.7082 104.792 11.3517 105.481 10.6616Z" fill="#212121"/>
<path d="M67.5415 11.7158V15.7506L71.8722 15.8189V11.4503L67.5415 11.7158Z" fill="#212121"/>
<path d="M78.429 1.92444C77.4523 0.862639 75.9533 0.339325 73.9091 0.339325H67.5418V7.28655H63.4458L67.5418 11.1621H73.6592C75.8018 11.1545 77.3691 10.654 78.3609 9.68319C79.383 8.70481 79.8827 7.40789 79.8827 5.84552C79.8827 4.28316 79.4057 2.97107 78.429 1.92444ZM73.8258 7.28655H71.8724V4.30591H73.8712C74.7873 4.30591 75.4309 4.95058 75.4309 5.80761C75.4309 6.64188 74.8479 7.28655 73.8258 7.28655Z" fill="#212121"/>
</svg>
